<?xml version="1.0" encoding="UTF-8" standalone="no"?>
<!DOCTYPE svg PUBLIC "-//W3C//DTD SVG 1.1//EN"
 "http://www.w3.org/Graphics/SVG/1.1/DTD/svg11.dtd">
<!-- Generated by graphviz version 2.40.1 (20161225.0304)
 -->
<!-- Title: G Pages: 1 -->
<svg width="838pt" height="1006pt"
 viewBox="0.00 0.00 837.50 1006.00" xmlns="http://www.w3.org/2000/svg" xmlns:xlink="http://www.w3.org/1999/xlink">
<g id="graph0" class="graph" transform="scale(1 1) rotate(0) translate(4 1002)">
<title>G</title>
<polygon fill="#ffffff" stroke="transparent" points="-4,4 -4,-1002 833.5,-1002 833.5,4 -4,4"/>
<!-- start -->
<g id="node1" class="node">
<title>start</title>
<polygon fill="#c0c0c0" stroke="#000000" points="396,-998 342,-998 342,-962 396,-962 396,-998"/>
<text text-anchor="middle" x="369" y="-976.3" font-family="Times,serif" font-size="14.00" fill="#000000">start</text>
</g>
<!-- pea -->
<g id="node2" class="node">
<title>pea</title>
<polygon fill="#ffff00" stroke="#000000" points="369,-925 268,-887 369,-849 470,-887 369,-925"/>
<text text-anchor="middle" x="369" y="-890.8" font-family="Times,serif" font-size="14.00" fill="#000000">Point</text>
<text text-anchor="middle" x="369" y="-875.8" font-family="Times,serif" font-size="14.00" fill="#000000">existing array ?</text>
</g>
<!-- start&#45;&gt;pea -->
<g id="edge13" class="edge">
<title>start&#45;&gt;pea</title>
<path fill="none" stroke="#000000" d="M369,-961.6262C369,-954.0068 369,-944.7735 369,-935.4359"/>
<polygon fill="#000000" stroke="#000000" points="372.5001,-935.3342 369,-925.3342 365.5001,-935.3342 372.5001,-935.3342"/>
</g>
<!-- span -->
<g id="node3" class="node">
<title>span</title>
<polygon fill="#0000ff" stroke="#000000" points="561,-905 507,-905 507,-869 561,-869 561,-905"/>
<text text-anchor="middle" x="534" y="-883.3" font-family="Times,serif" font-size="14.00" fill="#000000">span</text>
</g>
<!-- pea&#45;&gt;span -->
<g id="edge14" class="edge">
<title>pea&#45;&gt;span</title>
<path fill="none" stroke="#000000" d="M470.2067,-887C479.576,-887 488.6055,-887 496.7766,-887"/>
<polygon fill="#000000" stroke="#000000" points="496.9802,-890.5001 506.9802,-887 496.9801,-883.5001 496.9802,-890.5001"/>
<text text-anchor="middle" x="488.5" y="-893.8" font-family="Times,serif" font-size="14.00" fill="#000000">yes</text>
</g>
<!-- fbk -->
<g id="node5" class="node">
<title>fbk</title>
<polygon fill="#ffff00" stroke="#000000" points="369,-798 310,-760 369,-722 428,-760 369,-798"/>
<text text-anchor="middle" x="369" y="-763.8" font-family="Times,serif" font-size="14.00" fill="#000000">Find by</text>
<text text-anchor="middle" x="369" y="-748.8" font-family="Times,serif" font-size="14.00" fill="#000000">key ?</text>
</g>
<!-- pea&#45;&gt;fbk -->
<g id="edge15" class="edge">
<title>pea&#45;&gt;fbk</title>
<path fill="none" stroke="#000000" d="M369,-848.8958C369,-836.0868 369,-821.6272 369,-808.1491"/>
<polygon fill="#000000" stroke="#000000" points="372.5001,-808.0773 369,-798.0773 365.5001,-808.0773 372.5001,-808.0773"/>
<text text-anchor="middle" x="376" y="-819.8" font-family="Times,serif" font-size="14.00" fill="#000000">no</text>
</g>
<!-- array -->
<g id="node4" class="node">
<title>array</title>
<polygon fill="#0000ff" stroke="#000000" points="688,-905 634,-905 634,-869 688,-869 688,-905"/>
<text text-anchor="middle" x="661" y="-883.3" font-family="Times,serif" font-size="14.00" fill="#000000">array</text>
</g>
<!-- sbk -->
<g id="node6" class="node">
<title>sbk</title>
<polygon fill="#ffff00" stroke="#000000" points="369,-417 313,-379 369,-341 425,-379 369,-417"/>
<text text-anchor="middle" x="369" y="-382.8" font-family="Times,serif" font-size="14.00" fill="#000000">Sort by</text>
<text text-anchor="middle" x="369" y="-367.8" font-family="Times,serif" font-size="14.00" fill="#000000">key ?</text>
</g>
<!-- fbk&#45;&gt;sbk -->
<g id="edge16" class="edge">
<title>fbk&#45;&gt;sbk</title>
<path fill="none" stroke="#000000" d="M369,-721.7238C369,-651.976 369,-504.3214 369,-427.5915"/>
<polygon fill="#000000" stroke="#000000" points="372.5001,-427.2507 369,-417.2507 365.5001,-427.2508 372.5001,-427.2507"/>
<text text-anchor="middle" x="378.5" y="-565.8" font-family="Times,serif" font-size="14.00" fill="#000000">yes</text>
</g>
<!-- sv -->
<g id="node10" class="node">
<title>sv</title>
<polygon fill="#ffff00" stroke="#000000" points="517,-798 464,-760 517,-722 570,-760 517,-798"/>
<text text-anchor="middle" x="517" y="-763.8" font-family="Times,serif" font-size="14.00" fill="#000000">Size</text>
<text text-anchor="middle" x="517" y="-748.8" font-family="Times,serif" font-size="14.00" fill="#000000">varie ?</text>
</g>
<!-- fbk&#45;&gt;sv -->
<g id="edge17" class="edge">
<title>fbk&#45;&gt;sv</title>
<path fill="none" stroke="#000000" d="M428.3445,-760C436.6918,-760 445.2982,-760 453.7157,-760"/>
<polygon fill="#000000" stroke="#000000" points="453.8594,-763.5001 463.8593,-760 453.8593,-756.5001 453.8594,-763.5001"/>
<text text-anchor="middle" x="446" y="-766.8" font-family="Times,serif" font-size="14.00" fill="#000000">no</text>
</g>
<!-- ad1 -->
<g id="node14" class="node">
<title>ad1</title>
<polygon fill="#ffff00" stroke="#000000" points="281,-290 205,-252 281,-214 357,-252 281,-290"/>
<text text-anchor="middle" x="281" y="-255.8" font-family="Times,serif" font-size="14.00" fill="#000000">Allow</text>
<text text-anchor="middle" x="281" y="-240.8" font-family="Times,serif" font-size="14.00" fill="#000000">duplicate ?</text>
</g>
<!-- sbk&#45;&gt;ad1 -->
<g id="edge26" class="edge">
<title>sbk&#45;&gt;ad1</title>
<path fill="none" stroke="#000000" d="M350.9795,-352.9932C338.2199,-334.5787 320.919,-309.6104 306.7124,-289.1076"/>
<polygon fill="#000000" stroke="#000000" points="309.4079,-286.8524 300.8355,-280.6262 303.6541,-290.8392 309.4079,-286.8524"/>
<text text-anchor="middle" x="337.5" y="-311.8" font-family="Times,serif" font-size="14.00" fill="#000000">yes</text>
</g>
<!-- ad2 -->
<g id="node15" class="node">
<title>ad2</title>
<polygon fill="#ffff00" stroke="#000000" points="474,-290 398,-252 474,-214 550,-252 474,-290"/>
<text text-anchor="middle" x="474" y="-255.8" font-family="Times,serif" font-size="14.00" fill="#000000">Allow</text>
<text text-anchor="middle" x="474" y="-240.8" font-family="Times,serif" font-size="14.00" fill="#000000">duplicate ?</text>
</g>
<!-- sbk&#45;&gt;ad2 -->
<g id="edge27" class="edge">
<title>sbk&#45;&gt;ad2</title>
<path fill="none" stroke="#000000" d="M389.2451,-354.5131C405.0978,-335.3388 427.3567,-308.4162 445.0856,-286.9726"/>
<polygon fill="#000000" stroke="#000000" points="447.9613,-288.9873 451.6358,-279.05 442.5664,-284.5269 447.9613,-288.9873"/>
<text text-anchor="middle" x="432" y="-311.8" font-family="Times,serif" font-size="14.00" fill="#000000">no</text>
</g>
<!-- list -->
<g id="node7" class="node">
<title>list</title>
<polygon fill="#0000ff" stroke="#000000" points="544,-397 490,-397 490,-361 544,-361 544,-397"/>
<text text-anchor="middle" x="517" y="-375.3" font-family="Times,serif" font-size="14.00" fill="#000000">list</text>
</g>
<!-- ncs -->
<g id="node8" class="node">
<title>ncs</title>
<polygon fill="#ffff00" stroke="#000000" points="517,-671 438,-633 517,-595 596,-633 517,-671"/>
<text text-anchor="middle" x="517" y="-636.8" font-family="Times,serif" font-size="14.00" fill="#000000">Contiguous</text>
<text text-anchor="middle" x="517" y="-621.8" font-family="Times,serif" font-size="14.00" fill="#000000">storage ?</text>
</g>
<!-- vector -->
<g id="node9" class="node">
<title>vector</title>
<polygon fill="#0000ff" stroke="#000000" points="687,-651 633,-651 633,-615 687,-615 687,-651"/>
<text text-anchor="middle" x="660" y="-629.3" font-family="Times,serif" font-size="14.00" fill="#000000">vector</text>
</g>
<!-- ncs&#45;&gt;vector -->
<g id="edge20" class="edge">
<title>ncs&#45;&gt;vector</title>
<path fill="none" stroke="#000000" d="M596.0286,-633C605.2938,-633 614.3884,-633 622.6809,-633"/>
<polygon fill="#000000" stroke="#000000" points="622.7082,-636.5001 632.7082,-633 622.7082,-629.5001 622.7082,-636.5001"/>
<text text-anchor="middle" x="614.5" y="-639.8" font-family="Times,serif" font-size="14.00" fill="#000000">yes</text>
</g>
<!-- ieim -->
<g id="node12" class="node">
<title>ieim</title>
<polygon fill="#ffff00" stroke="#000000" points="517,-544 418,-506 517,-468 616,-506 517,-544"/>
<text text-anchor="middle" x="517" y="-509.8" font-family="Times,serif" font-size="14.00" fill="#000000">Insert/erase</text>
<text text-anchor="middle" x="517" y="-494.8" font-family="Times,serif" font-size="14.00" fill="#000000">in the middle ?</text>
</g>
<!-- ncs&#45;&gt;ieim -->
<g id="edge21" class="edge">
<title>ncs&#45;&gt;ieim</title>
<path fill="none" stroke="#000000" d="M517,-594.8958C517,-582.0868 517,-567.6272 517,-554.1491"/>
<polygon fill="#000000" stroke="#000000" points="520.5001,-554.0773 517,-544.0773 513.5001,-554.0773 520.5001,-554.0773"/>
<text text-anchor="middle" x="524" y="-565.8" font-family="Times,serif" font-size="14.00" fill="#000000">no</text>
</g>
<!-- sv&#45;&gt;ncs -->
<g id="edge18" class="edge">
<title>sv&#45;&gt;ncs</title>
<path fill="none" stroke="#000000" d="M517,-721.8958C517,-709.0868 517,-694.6272 517,-681.1491"/>
<polygon fill="#000000" stroke="#000000" points="520.5001,-681.0773 517,-671.0773 513.5001,-681.0773 520.5001,-681.0773"/>
<text text-anchor="middle" x="526.5" y="-692.8" font-family="Times,serif" font-size="14.00" fill="#000000">yes</text>
</g>
<!-- sc -->
<g id="node11" class="node">
<title>sc</title>
<polygon fill="#ffff00" stroke="#000000" points="661,-798 606,-760 661,-722 716,-760 661,-798"/>
<text text-anchor="middle" x="661" y="-763.8" font-family="Times,serif" font-size="14.00" fill="#000000">Size is</text>
<text text-anchor="middle" x="661" y="-748.8" font-family="Times,serif" font-size="14.00" fill="#000000">const ?</text>
</g>
<!-- sv&#45;&gt;sc -->
<g id="edge19" class="edge">
<title>sv&#45;&gt;sc</title>
<path fill="none" stroke="#000000" d="M570.2112,-760C578.4132,-760 586.965,-760 595.3988,-760"/>
<polygon fill="#000000" stroke="#000000" points="595.5962,-763.5001 605.5962,-760 595.5961,-756.5001 595.5962,-763.5001"/>
<text text-anchor="middle" x="588" y="-766.8" font-family="Times,serif" font-size="14.00" fill="#000000">no</text>
</g>
<!-- sc&#45;&gt;array -->
<g id="edge24" class="edge">
<title>sc&#45;&gt;array</title>
<path fill="none" stroke="#000000" d="M661,-798.0558C661,-817.54 661,-840.8536 661,-858.7233"/>
<polygon fill="#000000" stroke="#000000" points="657.5001,-858.804 661,-868.804 664.5001,-858.804 657.5001,-858.804"/>
<text text-anchor="middle" x="670.5" y="-819.8" font-family="Times,serif" font-size="14.00" fill="#000000">yes</text>
</g>
<!-- sc&#45;&gt;vector -->
<g id="edge25" class="edge">
<title>sc&#45;&gt;vector</title>
<path fill="none" stroke="#000000" d="M660.7,-721.8958C660.5468,-702.4426 660.3636,-679.1822 660.2231,-661.3349"/>
<polygon fill="#000000" stroke="#000000" points="663.7225,-661.2357 660.1438,-651.2636 656.7228,-661.2909 663.7225,-661.2357"/>
<text text-anchor="middle" x="667" y="-692.8" font-family="Times,serif" font-size="14.00" fill="#000000">no</text>
</g>
<!-- ieim&#45;&gt;list -->
<g id="edge22" class="edge">
<title>ieim&#45;&gt;list</title>
<path fill="none" stroke="#000000" d="M517,-467.8958C517,-448.4426 517,-425.1822 517,-407.3349"/>
<polygon fill="#000000" stroke="#000000" points="520.5001,-407.2635 517,-397.2636 513.5001,-407.2636 520.5001,-407.2635"/>
<text text-anchor="middle" x="526.5" y="-438.8" font-family="Times,serif" font-size="14.00" fill="#000000">yes</text>
</g>
<!-- deque -->
<g id="node13" class="node">
<title>deque</title>
<polygon fill="#0000ff" stroke="#000000" points="706,-524 652,-524 652,-488 706,-488 706,-524"/>
<text text-anchor="middle" x="679" y="-502.3" font-family="Times,serif" font-size="14.00" fill="#000000">deque</text>
</g>
<!-- ieim&#45;&gt;deque -->
<g id="edge23" class="edge">
<title>ieim&#45;&gt;deque</title>
<path fill="none" stroke="#000000" d="M616.3666,-506C625.282,-506 633.8842,-506 641.7093,-506"/>
<polygon fill="#000000" stroke="#000000" points="641.8549,-509.5001 651.8549,-506 641.8549,-502.5001 641.8549,-509.5001"/>
<text text-anchor="middle" x="634" y="-512.8" font-family="Times,serif" font-size="14.00" fill="#000000">no</text>
</g>
<!-- skv11 -->
<g id="node16" class="node">
<title>skv11</title>
<polygon fill="#ffff00" stroke="#000000" points="105,-163 26,-125 105,-87 184,-125 105,-163"/>
<text text-anchor="middle" x="105" y="-128.8" font-family="Times,serif" font-size="14.00" fill="#000000">Separate</text>
<text text-anchor="middle" x="105" y="-113.8" font-family="Times,serif" font-size="14.00" fill="#000000">key/value ?</text>
</g>
<!-- ad1&#45;&gt;skv11 -->
<g id="edge1" class="edge">
<title>ad1&#45;&gt;skv11</title>
<path fill="none" stroke="#000000" d="M249.5347,-229.2949C220.3088,-208.2058 176.6555,-176.7059 144.974,-153.8449"/>
<polygon fill="#000000" stroke="#000000" points="146.9436,-150.95 136.7863,-147.9367 142.8475,-156.6265 146.9436,-150.95"/>
<text text-anchor="middle" x="208.5" y="-184.8" font-family="Times,serif" font-size="14.00" fill="#000000">yes</text>
</g>
<!-- skv12 -->
<g id="node17" class="node">
<title>skv12</title>
<polygon fill="#ffff00" stroke="#000000" points="281,-163 202,-125 281,-87 360,-125 281,-163"/>
<text text-anchor="middle" x="281" y="-128.8" font-family="Times,serif" font-size="14.00" fill="#000000">Separate</text>
<text text-anchor="middle" x="281" y="-113.8" font-family="Times,serif" font-size="14.00" fill="#000000">key/value ?</text>
</g>
<!-- ad1&#45;&gt;skv12 -->
<g id="edge2" class="edge">
<title>ad1&#45;&gt;skv12</title>
<path fill="none" stroke="#000000" d="M281,-213.8958C281,-201.0868 281,-186.6272 281,-173.1491"/>
<polygon fill="#000000" stroke="#000000" points="284.5001,-173.0773 281,-163.0773 277.5001,-173.0773 284.5001,-173.0773"/>
<text text-anchor="middle" x="288" y="-184.8" font-family="Times,serif" font-size="14.00" fill="#000000">no</text>
</g>
<!-- skv21 -->
<g id="node18" class="node">
<title>skv21</title>
<polygon fill="#ffff00" stroke="#000000" points="474,-163 395,-125 474,-87 553,-125 474,-163"/>
<text text-anchor="middle" x="474" y="-128.8" font-family="Times,serif" font-size="14.00" fill="#000000">Separate</text>
<text text-anchor="middle" x="474" y="-113.8" font-family="Times,serif" font-size="14.00" fill="#000000">key/value ?</text>
</g>
<!-- ad2&#45;&gt;skv21 -->
<g id="edge3" class="edge">
<title>ad2&#45;&gt;skv21</title>
<path fill="none" stroke="#000000" d="M474,-213.8958C474,-201.0868 474,-186.6272 474,-173.1491"/>
<polygon fill="#000000" stroke="#000000" points="477.5001,-173.0773 474,-163.0773 470.5001,-173.0773 477.5001,-173.0773"/>
<text text-anchor="middle" x="483.5" y="-184.8" font-family="Times,serif" font-size="14.00" fill="#000000">yes</text>
</g>
<!-- skv22 -->
<g id="node19" class="node">
<title>skv22</title>
<polygon fill="#ffff00" stroke="#000000" points="667,-163 588,-125 667,-87 746,-125 667,-163"/>
<text text-anchor="middle" x="667" y="-128.8" font-family="Times,serif" font-size="14.00" fill="#000000">Separate</text>
<text text-anchor="middle" x="667" y="-113.8" font-family="Times,serif" font-size="14.00" fill="#000000">key/value ?</text>
</g>
<!-- ad2&#45;&gt;skv22 -->
<g id="edge4" class="edge">
<title>ad2&#45;&gt;skv22</title>
<path fill="none" stroke="#000000" d="M507.1779,-230.1679C539.7668,-208.7234 589.606,-175.9276 624.954,-152.6676"/>
<polygon fill="#000000" stroke="#000000" points="627.1795,-155.393 633.6092,-146.9722 623.3316,-149.5454 627.1795,-155.393"/>
<text text-anchor="middle" x="584" y="-184.8" font-family="Times,serif" font-size="14.00" fill="#000000">no</text>
</g>
<!-- multimap -->
<g id="node20" class="node">
<title>multimap</title>
<polygon fill="#0000ff" stroke="#000000" points="70,-36 0,-36 0,0 70,0 70,-36"/>
<text text-anchor="middle" x="35" y="-14.3" font-family="Times,serif" font-size="14.00" fill="#000000">multimap</text>
</g>
<!-- skv11&#45;&gt;multimap -->
<g id="edge5" class="edge">
<title>skv11&#45;&gt;multimap</title>
<path fill="none" stroke="#000000" d="M86.057,-96.0443C75.6321,-80.1091 62.7808,-60.4649 52.5796,-44.8717"/>
<polygon fill="#000000" stroke="#000000" points="55.3215,-42.6696 46.9179,-36.2174 49.4636,-46.5018 55.3215,-42.6696"/>
<text text-anchor="middle" x="77.5" y="-57.8" font-family="Times,serif" font-size="14.00" fill="#000000">yes</text>
</g>
<!-- multiset -->
<g id="node21" class="node">
<title>multiset</title>
<polygon fill="#0000ff" stroke="#000000" points="149.5,-36 88.5,-36 88.5,0 149.5,0 149.5,-36"/>
<text text-anchor="middle" x="119" y="-14.3" font-family="Times,serif" font-size="14.00" fill="#000000">multiset</text>
</g>
<!-- skv11&#45;&gt;multiset -->
<g id="edge6" class="edge">
<title>skv11&#45;&gt;multiset</title>
<path fill="none" stroke="#000000" d="M109.7007,-89.0729C111.5129,-75.2229 113.5563,-59.6054 115.2651,-46.5449"/>
<polygon fill="#000000" stroke="#000000" points="118.7825,-46.6401 116.6095,-36.2705 111.8416,-45.7319 118.7825,-46.6401"/>
<text text-anchor="middle" x="122" y="-57.8" font-family="Times,serif" font-size="14.00" fill="#000000">no</text>
</g>
<!-- map -->
<g id="node22" class="node">
<title>map</title>
<polygon fill="#0000ff" stroke="#000000" points="236,-36 182,-36 182,0 236,0 236,-36"/>
<text text-anchor="middle" x="209" y="-14.3" font-family="Times,serif" font-size="14.00" fill="#000000">map</text>
</g>
<!-- skv12&#45;&gt;map -->
<g id="edge7" class="edge">
<title>skv12&#45;&gt;map</title>
<path fill="none" stroke="#000000" d="M261.5158,-96.0443C250.793,-80.1091 237.5745,-60.4649 227.0819,-44.8717"/>
<polygon fill="#000000" stroke="#000000" points="229.745,-42.56 221.2584,-36.2174 223.9374,-46.4679 229.745,-42.56"/>
<text text-anchor="middle" x="252.5" y="-57.8" font-family="Times,serif" font-size="14.00" fill="#000000">yes</text>
</g>
<!-- set -->
<g id="node23" class="node">
<title>set</title>
<polygon fill="#0000ff" stroke="#000000" points="308,-36 254,-36 254,0 308,0 308,-36"/>
<text text-anchor="middle" x="281" y="-14.3" font-family="Times,serif" font-size="14.00" fill="#000000">set</text>
</g>
<!-- skv12&#45;&gt;set -->
<g id="edge8" class="edge">
<title>skv12&#45;&gt;set</title>
<path fill="none" stroke="#000000" d="M281,-86.9745C281,-73.5944 281,-58.8013 281,-46.3572"/>
<polygon fill="#000000" stroke="#000000" points="284.5001,-46.1208 281,-36.1208 277.5001,-46.1208 284.5001,-46.1208"/>
<text text-anchor="middle" x="288" y="-57.8" font-family="Times,serif" font-size="14.00" fill="#000000">no</text>
</g>
<!-- unordered_multimap -->
<g id="node24" class="node">
<title>unordered_multimap</title>
<polygon fill="#0000ff" stroke="#000000" points="457.5,-36 326.5,-36 326.5,0 457.5,0 457.5,-36"/>
<text text-anchor="middle" x="392" y="-14.3" font-family="Times,serif" font-size="14.00" fill="#000000">unordered_multimap</text>
</g>
<!-- skv21&#45;&gt;unordered_multimap -->
<g id="edge9" class="edge">
<title>skv21&#45;&gt;unordered_multimap</title>
<path fill="none" stroke="#000000" d="M452.6695,-97.1663C440.1425,-80.8201 424.405,-60.2846 412.0977,-44.2251"/>
<polygon fill="#000000" stroke="#000000" points="414.8705,-42.0892 406.0097,-36.2809 409.3144,-46.3472 414.8705,-42.0892"/>
<text text-anchor="middle" x="440.5" y="-57.8" font-family="Times,serif" font-size="14.00" fill="#000000">yes</text>
</g>
<!-- unordered_multiset -->
<g id="node25" class="node">
<title>unordered_multiset</title>
<polygon fill="#0000ff" stroke="#000000" points="598,-36 476,-36 476,0 598,0 598,-36"/>
<text text-anchor="middle" x="537" y="-14.3" font-family="Times,serif" font-size="14.00" fill="#000000">unordered_multiset</text>
</g>
<!-- skv21&#45;&gt;unordered_multiset -->
<g id="edge10" class="edge">
<title>skv21&#45;&gt;unordered_multiset</title>
<path fill="none" stroke="#000000" d="M491.549,-95.1945C500.7752,-79.5247 512.0023,-60.4564 520.9897,-45.1921"/>
<polygon fill="#000000" stroke="#000000" points="524.2005,-46.637 526.2582,-36.2439 518.1684,-43.0854 524.2005,-46.637"/>
<text text-anchor="middle" x="522" y="-57.8" font-family="Times,serif" font-size="14.00" fill="#000000">no</text>
</g>
<!-- unordered_map -->
<g id="node26" class="node">
<title>unordered_map</title>
<polygon fill="#0000ff" stroke="#000000" points="718,-36 616,-36 616,0 718,0 718,-36"/>
<text text-anchor="middle" x="667" y="-14.3" font-family="Times,serif" font-size="14.00" fill="#000000">unordered_map</text>
</g>
<!-- skv22&#45;&gt;unordered_map -->
<g id="edge11" class="edge">
<title>skv22&#45;&gt;unordered_map</title>
<path fill="none" stroke="#000000" d="M667,-86.9745C667,-73.5944 667,-58.8013 667,-46.3572"/>
<polygon fill="#000000" stroke="#000000" points="670.5001,-46.1208 667,-36.1208 663.5001,-46.1208 670.5001,-46.1208"/>
<text text-anchor="middle" x="676.5" y="-57.8" font-family="Times,serif" font-size="14.00" fill="#000000">yes</text>
</g>
<!-- unordered_set -->
<g id="node27" class="node">
<title>unordered_set</title>
<polygon fill="#0000ff" stroke="#000000" points="829.5,-36 736.5,-36 736.5,0 829.5,0 829.5,-36"/>
<text text-anchor="middle" x="783" y="-14.3" font-family="Times,serif" font-size="14.00" fill="#000000">unordered_set</text>
</g>
<!-- skv22&#45;&gt;unordered_set -->
<g id="edge12" class="edge">
<title>skv22&#45;&gt;unordered_set</title>
<path fill="none" stroke="#000000" d="M694.1968,-99.9133C712.7127,-82.834 737.1287,-60.3123 755.6723,-43.2075"/>
<polygon fill="#000000" stroke="#000000" points="758.2482,-45.593 763.2257,-36.2401 753.5021,-40.4477 758.2482,-45.593"/>
<text text-anchor="middle" x="749" y="-57.8" font-family="Times,serif" font-size="14.00" fill="#000000">no</text>
</g>
</g>
</svg>
