
<?xml version="1.0" encoding="UTF-8" standalone="no"?>
<!DOCTYPE svg PUBLIC "-//W3C//DTD SVG 1.1//EN"
 "http://www.w3.org/Graphics/SVG/1.1/DTD/svg11.dtd">
<!-- Generated by graphviz version 2.40.1 (20161225.0304)
 -->
<!-- Title: G Pages: 1 -->
<svg width="1087pt" height="588pt"
 viewBox="0.00 0.00 1086.83 588.00" xmlns="http://www.w3.org/2000/svg" xmlns:xlink="http://www.w3.org/1999/xlink">
<g id="graph0" class="graph" transform="scale(1 1) rotate(0) translate(4 584)">
<title>G</title>
<polygon fill="#ffffff" stroke="transparent" points="-4,4 -4,-584 1082.8338,-584 1082.8338,4 -4,4"/>
<!-- start -->
<g id="node1" class="node">
<title>start</title>
<path fill="none" stroke="#000000" d="M245.8338,-556.4C245.8338,-556.4 215.8338,-556.4 215.8338,-556.4 209.8338,-556.4 203.8338,-550.4 203.8338,-544.4 203.8338,-544.4 203.8338,-532.4 203.8338,-532.4 203.8338,-526.4 209.8338,-520.4 215.8338,-520.4 215.8338,-520.4 245.8338,-520.4 245.8338,-520.4 251.8338,-520.4 257.8338,-526.4 257.8338,-532.4 257.8338,-532.4 257.8338,-544.4 257.8338,-544.4 257.8338,-550.4 251.8338,-556.4 245.8338,-556.4"/>
<text text-anchor="middle" x="230.8338" y="-534.2" font-family="Times,serif" font-size="14.00" fill="#000000">start</text>
</g>
<!-- pea -->
<g id="node3" class="node">
<title>pea</title>
<polygon fill="none" stroke="#000000" points="395.8338,-580.1002 293.7414,-538.4 395.8338,-496.6998 497.9262,-538.4 395.8338,-580.1002"/>
<text text-anchor="middle" x="395.8338" y="-542.6" font-family="Times,serif" font-size="14.00" fill="#000000">Point</text>
<text text-anchor="middle" x="395.8338" y="-525.8" font-family="Times,serif" font-size="14.00" fill="#000000">existing array ?</text>
</g>
<!-- start&#45;&gt;pea -->
<g id="edge13" class="edge">
<title>start&#45;&gt;pea</title>
<path fill="none" stroke="#000000" d="M257.9041,-538.4C266.4882,-538.4 275.0724,-538.4 283.6565,-538.4"/>
<polygon fill="#000000" stroke="#000000" points="283.7335,-541.9001 293.7335,-538.4 283.7335,-534.9001 283.7335,-541.9001"/>
</g>
<!-- fbk -->
<g id="node2" class="node">
<title>fbk</title>
<polygon fill="none" stroke="#000000" points="592.8338,-580.1002 533.4869,-538.4 592.8338,-496.6998 652.1807,-538.4 592.8338,-580.1002"/>
<text text-anchor="middle" x="592.8338" y="-542.6" font-family="Times,serif" font-size="14.00" fill="#000000">Find by</text>
<text text-anchor="middle" x="592.8338" y="-525.8" font-family="Times,serif" font-size="14.00" fill="#000000">key ?</text>
</g>
<!-- sv -->
<g id="node4" class="node">
<title>sv</title>
<polygon fill="none" stroke="#000000" points="773.8338,-580.1002 719.9431,-538.4 773.8338,-496.6998 827.7245,-538.4 773.8338,-580.1002"/>
<text text-anchor="middle" x="773.8338" y="-542.6" font-family="Times,serif" font-size="14.00" fill="#000000">Size</text>
<text text-anchor="middle" x="773.8338" y="-525.8" font-family="Times,serif" font-size="14.00" fill="#000000">varie ?</text>
</g>
<!-- fbk&#45;&gt;sv -->
<g id="edge17" class="edge">
<title>fbk&#45;&gt;sv</title>
<path fill="none" stroke="#000000" d="M652.1,-538.4C670.542,-538.4 690.9564,-538.4 709.714,-538.4"/>
<polygon fill="#000000" stroke="#000000" points="709.9414,-541.9001 719.9414,-538.4 709.9414,-534.9001 709.9414,-541.9001"/>
<text text-anchor="middle" x="686.0729" y="-545.6" font-family="Times,serif" font-size="14.00" fill="#000000">no</text>
</g>
<!-- sbk -->
<g id="node7" class="node">
<title>sbk</title>
<polygon fill="none" stroke="#000000" points="559.8338,-444.1002 503.1657,-402.4 559.8338,-360.6998 616.5019,-402.4 559.8338,-444.1002"/>
<text text-anchor="middle" x="559.8338" y="-406.6" font-family="Times,serif" font-size="14.00" fill="#000000">Sort by</text>
<text text-anchor="middle" x="559.8338" y="-389.8" font-family="Times,serif" font-size="14.00" fill="#000000">key ?</text>
</g>
<!-- fbk&#45;&gt;sbk -->
<g id="edge16" class="edge">
<title>fbk&#45;&gt;sbk</title>
<path fill="none" stroke="#000000" d="M584.1634,-502.6676C580.1087,-485.9574 575.2329,-465.8628 570.9142,-448.0647"/>
<polygon fill="#000000" stroke="#000000" points="574.2057,-446.7864 568.4463,-437.8938 567.4031,-448.4371 574.2057,-446.7864"/>
<text text-anchor="middle" x="588.1634" y="-466.2" font-family="Times,serif" font-size="14.00" fill="#000000">yes</text>
</g>
<!-- pea&#45;&gt;fbk -->
<g id="edge15" class="edge">
<title>pea&#45;&gt;fbk</title>
<path fill="none" stroke="#000000" d="M498.0845,-538.4C506.6482,-538.4 515.174,-538.4 523.4026,-538.4"/>
<polygon fill="#000000" stroke="#000000" points="523.647,-541.9001 533.647,-538.4 523.6469,-534.9001 523.647,-541.9001"/>
<text text-anchor="middle" x="515.8952" y="-545.6" font-family="Times,serif" font-size="14.00" fill="#000000">no</text>
</g>
<!-- span -->
<g id="node27" class="node">
<title>span</title>
<polygon fill="none" stroke="#000000" points="422.8338,-420.4 368.8338,-420.4 368.8338,-384.4 422.8338,-384.4 422.8338,-420.4"/>
<text text-anchor="middle" x="395.8338" y="-398.2" font-family="Times,serif" font-size="14.00" fill="#000000">span</text>
</g>
<!-- pea&#45;&gt;span -->
<g id="edge14" class="edge">
<title>pea&#45;&gt;span</title>
<path fill="none" stroke="#000000" d="M395.8338,-496.4858C395.8338,-475.1174 395.8338,-449.6983 395.8338,-430.671"/>
<polygon fill="#000000" stroke="#000000" points="399.3339,-430.5553 395.8338,-420.5553 392.3339,-430.5554 399.3339,-430.5553"/>
<text text-anchor="middle" x="405.1634" y="-466.2" font-family="Times,serif" font-size="14.00" fill="#000000">yes</text>
</g>
<!-- sc -->
<g id="node5" class="node">
<title>sc</title>
<polygon fill="none" stroke="#000000" points="932.8338,-580.1002 877.804,-538.4 932.8338,-496.6998 987.8636,-538.4 932.8338,-580.1002"/>
<text text-anchor="middle" x="932.8338" y="-542.6" font-family="Times,serif" font-size="14.00" fill="#000000">Size is</text>
<text text-anchor="middle" x="932.8338" y="-525.8" font-family="Times,serif" font-size="14.00" fill="#000000">const ?</text>
</g>
<!-- sv&#45;&gt;sc -->
<g id="edge19" class="edge">
<title>sv&#45;&gt;sc</title>
<path fill="none" stroke="#000000" d="M827.6639,-538.4C840.5147,-538.4 854.368,-538.4 867.6677,-538.4"/>
<polygon fill="#000000" stroke="#000000" points="867.7044,-541.9001 877.7044,-538.4 867.7043,-534.9001 867.7044,-541.9001"/>
<text text-anchor="middle" x="852.5491" y="-545.6" font-family="Times,serif" font-size="14.00" fill="#000000">no</text>
</g>
<!-- ncs -->
<g id="node8" class="node">
<title>ncs</title>
<polygon fill="none" stroke="#000000" points="773.8338,-444.1002 663.3814,-402.4 773.8338,-360.6998 884.2862,-402.4 773.8338,-444.1002"/>
<text text-anchor="middle" x="773.8338" y="-406.6" font-family="Times,serif" font-size="14.00" fill="#000000">Need contiguous</text>
<text text-anchor="middle" x="773.8338" y="-389.8" font-family="Times,serif" font-size="14.00" fill="#000000">storage ?</text>
</g>
<!-- sv&#45;&gt;ncs -->
<g id="edge18" class="edge">
<title>sv&#45;&gt;ncs</title>
<path fill="none" stroke="#000000" d="M773.8338,-496.4858C773.8338,-483.3007 773.8338,-468.5735 773.8338,-454.7571"/>
<polygon fill="#000000" stroke="#000000" points="777.3339,-454.4099 773.8338,-444.4099 770.3339,-454.4099 777.3339,-454.4099"/>
<text text-anchor="middle" x="783.1634" y="-466.2" font-family="Times,serif" font-size="14.00" fill="#000000">yes</text>
</g>
<!-- array -->
<g id="node6" class="node">
<title>array</title>
<polygon fill="none" stroke="#000000" points="1078.8338,-556.4 1024.8338,-556.4 1024.8338,-520.4 1078.8338,-520.4 1078.8338,-556.4"/>
<text text-anchor="middle" x="1051.8338" y="-534.2" font-family="Times,serif" font-size="14.00" fill="#000000">array</text>
</g>
<!-- sc&#45;&gt;array -->
<g id="edge24" class="edge">
<title>sc&#45;&gt;array</title>
<path fill="none" stroke="#000000" d="M988.1533,-538.4C997.1153,-538.4 1006.2045,-538.4 1014.6021,-538.4"/>
<polygon fill="#000000" stroke="#000000" points="1014.8076,-541.9001 1024.8076,-538.4 1014.8076,-534.9001 1014.8076,-541.9001"/>
<text text-anchor="middle" x="1006.466" y="-545.6" font-family="Times,serif" font-size="14.00" fill="#000000">yes</text>
</g>
<!-- vector -->
<g id="node9" class="node">
<title>vector</title>
<polygon fill="none" stroke="#000000" points="974.8338,-420.4 920.8338,-420.4 920.8338,-384.4 974.8338,-384.4 974.8338,-420.4"/>
<text text-anchor="middle" x="947.8338" y="-398.2" font-family="Times,serif" font-size="14.00" fill="#000000">vector</text>
</g>
<!-- sc&#45;&gt;vector -->
<g id="edge25" class="edge">
<title>sc&#45;&gt;vector</title>
<path fill="none" stroke="#000000" d="M937.0921,-499.7916C939.5149,-477.8246 942.4966,-450.7903 944.7034,-430.7825"/>
<polygon fill="#000000" stroke="#000000" points="948.1929,-431.0694 945.8103,-420.746 941.2351,-430.302 948.1929,-431.0694"/>
<text text-anchor="middle" x="947.8338" y="-466.2" font-family="Times,serif" font-size="14.00" fill="#000000">no</text>
</g>
<!-- ad1 -->
<g id="node12" class="node">
<title>ad1</title>
<polygon fill="none" stroke="#000000" points="280.8338,-308.1002 203.7734,-266.4 280.8338,-224.6998 357.8942,-266.4 280.8338,-308.1002"/>
<text text-anchor="middle" x="280.8338" y="-270.6" font-family="Times,serif" font-size="14.00" fill="#000000">Allow</text>
<text text-anchor="middle" x="280.8338" y="-253.8" font-family="Times,serif" font-size="14.00" fill="#000000">duplicate ?</text>
</g>
<!-- sbk&#45;&gt;ad1 -->
<g id="edge26" class="edge">
<title>sbk&#45;&gt;ad1</title>
<path fill="none" stroke="#000000" d="M525.6229,-385.7237C476.8288,-361.9388 386.9465,-318.1252 330.7275,-290.7209"/>
<polygon fill="#000000" stroke="#000000" points="332.1867,-287.5386 321.6642,-286.303 329.1195,-293.8309 332.1867,-287.5386"/>
<text text-anchor="middle" x="447.1634" y="-330.2" font-family="Times,serif" font-size="14.00" fill="#000000">yes</text>
</g>
<!-- ad2 -->
<g id="node13" class="node">
<title>ad2</title>
<polygon fill="none" stroke="#000000" points="559.8338,-308.1002 482.7734,-266.4 559.8338,-224.6998 636.8942,-266.4 559.8338,-308.1002"/>
<text text-anchor="middle" x="559.8338" y="-270.6" font-family="Times,serif" font-size="14.00" fill="#000000">Allow</text>
<text text-anchor="middle" x="559.8338" y="-253.8" font-family="Times,serif" font-size="14.00" fill="#000000">duplicate ?</text>
</g>
<!-- sbk&#45;&gt;ad2 -->
<g id="edge27" class="edge">
<title>sbk&#45;&gt;ad2</title>
<path fill="none" stroke="#000000" d="M559.8338,-360.4858C559.8338,-347.3007 559.8338,-332.5735 559.8338,-318.7571"/>
<polygon fill="#000000" stroke="#000000" points="563.3339,-318.4099 559.8338,-308.4099 556.3339,-318.4099 563.3339,-318.4099"/>
<text text-anchor="middle" x="566.8338" y="-330.2" font-family="Times,serif" font-size="14.00" fill="#000000">no</text>
</g>
<!-- ncs&#45;&gt;vector -->
<g id="edge20" class="edge">
<title>ncs&#45;&gt;vector</title>
<path fill="none" stroke="#000000" d="M884.5236,-402.4C893.6473,-402.4 902.3948,-402.4 910.3211,-402.4"/>
<polygon fill="#000000" stroke="#000000" points="910.5791,-405.9001 920.5791,-402.4 910.579,-398.9001 910.5791,-405.9001"/>
<text text-anchor="middle" x="902.5719" y="-409.6" font-family="Times,serif" font-size="14.00" fill="#000000">yes</text>
</g>
<!-- ieim -->
<g id="node10" class="node">
<title>ieim</title>
<polygon fill="none" stroke="#000000" points="790.8338,-308.1002 691.1401,-266.4 790.8338,-224.6998 890.5275,-266.4 790.8338,-308.1002"/>
<text text-anchor="middle" x="790.8338" y="-270.6" font-family="Times,serif" font-size="14.00" fill="#000000">Insert/erase</text>
<text text-anchor="middle" x="790.8338" y="-253.8" font-family="Times,serif" font-size="14.00" fill="#000000">in the middle ?</text>
</g>
<!-- ncs&#45;&gt;ieim -->
<g id="edge21" class="edge">
<title>ncs&#45;&gt;ieim</title>
<path fill="none" stroke="#000000" d="M778.8424,-362.3311C780.6409,-347.9436 782.6917,-331.5369 784.5826,-316.41"/>
<polygon fill="#000000" stroke="#000000" points="788.0935,-316.5395 785.861,-306.1825 781.1476,-315.6711 788.0935,-316.5395"/>
<text text-anchor="middle" x="790.8338" y="-330.2" font-family="Times,serif" font-size="14.00" fill="#000000">no</text>
</g>
<!-- deque -->
<g id="node11" class="node">
<title>deque</title>
<polygon fill="none" stroke="#000000" points="979.8338,-284.4 925.8338,-284.4 925.8338,-248.4 979.8338,-248.4 979.8338,-284.4"/>
<text text-anchor="middle" x="952.8338" y="-262.2" font-family="Times,serif" font-size="14.00" fill="#000000">deque</text>
</g>
<!-- ieim&#45;&gt;deque -->
<g id="edge23" class="edge">
<title>ieim&#45;&gt;deque</title>
<path fill="none" stroke="#000000" d="M890.6637,-266.4C899.3379,-266.4 907.7071,-266.4 915.3428,-266.4"/>
<polygon fill="#000000" stroke="#000000" points="915.6045,-269.9001 925.6045,-266.4 915.6044,-262.9001 915.6045,-269.9001"/>
<text text-anchor="middle" x="908.1322" y="-273.6" font-family="Times,serif" font-size="14.00" fill="#000000">no</text>
</g>
<!-- list -->
<g id="node26" class="node">
<title>list</title>
<polygon fill="none" stroke="#000000" points="823.8338,-148.4 769.8338,-148.4 769.8338,-112.4 823.8338,-112.4 823.8338,-148.4"/>
<text text-anchor="middle" x="796.8338" y="-126.2" font-family="Times,serif" font-size="14.00" fill="#000000">list</text>
</g>
<!-- ieim&#45;&gt;list -->
<g id="edge22" class="edge">
<title>ieim&#45;&gt;list</title>
<path fill="none" stroke="#000000" d="M792.6503,-225.2264C793.6004,-203.6902 794.7392,-177.8786 795.5885,-158.6261"/>
<polygon fill="#000000" stroke="#000000" points="799.0953,-158.5473 796.0396,-148.4027 792.1021,-158.2387 799.0953,-158.5473"/>
<text text-anchor="middle" x="804.1634" y="-194.2" font-family="Times,serif" font-size="14.00" fill="#000000">yes</text>
</g>
<!-- skv11 -->
<g id="node14" class="node">
<title>skv11</title>
<polygon fill="none" stroke="#000000" points="102.8338,-172.1002 22.5544,-130.4 102.8338,-88.6998 183.1132,-130.4 102.8338,-172.1002"/>
<text text-anchor="middle" x="102.8338" y="-134.6" font-family="Times,serif" font-size="14.00" fill="#000000">Separate</text>
<text text-anchor="middle" x="102.8338" y="-117.8" font-family="Times,serif" font-size="14.00" fill="#000000">key/value ?</text>
</g>
<!-- ad1&#45;&gt;skv11 -->
<g id="edge1" class="edge">
<title>ad1&#45;&gt;skv11</title>
<path fill="none" stroke="#000000" d="M248.5993,-241.7714C219.17,-219.2861 175.5285,-185.942 143.6699,-161.6006"/>
<polygon fill="#000000" stroke="#000000" points="145.501,-158.595 135.43,-155.3049 141.2512,-164.1573 145.501,-158.595"/>
<text text-anchor="middle" x="212.1634" y="-194.2" font-family="Times,serif" font-size="14.00" fill="#000000">yes</text>
</g>
<!-- skv12 -->
<g id="node15" class="node">
<title>skv12</title>
<polygon fill="none" stroke="#000000" points="280.8338,-172.1002 200.5544,-130.4 280.8338,-88.6998 361.1132,-130.4 280.8338,-172.1002"/>
<text text-anchor="middle" x="280.8338" y="-134.6" font-family="Times,serif" font-size="14.00" fill="#000000">Separate</text>
<text text-anchor="middle" x="280.8338" y="-117.8" font-family="Times,serif" font-size="14.00" fill="#000000">key/value ?</text>
</g>
<!-- ad1&#45;&gt;skv12 -->
<g id="edge2" class="edge">
<title>ad1&#45;&gt;skv12</title>
<path fill="none" stroke="#000000" d="M280.8338,-224.4858C280.8338,-211.3007 280.8338,-196.5735 280.8338,-182.7571"/>
<polygon fill="#000000" stroke="#000000" points="284.3339,-182.4099 280.8338,-172.4099 277.3339,-182.4099 284.3339,-182.4099"/>
<text text-anchor="middle" x="287.8338" y="-194.2" font-family="Times,serif" font-size="14.00" fill="#000000">no</text>
</g>
<!-- skv21 -->
<g id="node16" class="node">
<title>skv21</title>
<polygon fill="none" stroke="#000000" points="493.8338,-172.1002 413.5544,-130.4 493.8338,-88.6998 574.1132,-130.4 493.8338,-172.1002"/>
<text text-anchor="middle" x="493.8338" y="-134.6" font-family="Times,serif" font-size="14.00" fill="#000000">Separate</text>
<text text-anchor="middle" x="493.8338" y="-117.8" font-family="Times,serif" font-size="14.00" fill="#000000">key/value ?</text>
</g>
<!-- ad2&#45;&gt;skv21 -->
<g id="edge3" class="edge">
<title>ad2&#45;&gt;skv21</title>
<path fill="none" stroke="#000000" d="M543.6884,-233.1307C534.8991,-215.0194 523.9293,-192.4149 514.5191,-173.0243"/>
<polygon fill="#000000" stroke="#000000" points="517.5561,-171.2657 510.0413,-163.7972 511.2585,-174.3219 517.5561,-171.2657"/>
<text text-anchor="middle" x="540.1634" y="-194.2" font-family="Times,serif" font-size="14.00" fill="#000000">yes</text>
</g>
<!-- skv22 -->
<g id="node17" class="node">
<title>skv22</title>
<polygon fill="none" stroke="#000000" points="671.8338,-172.1002 591.5544,-130.4 671.8338,-88.6998 752.1132,-130.4 671.8338,-172.1002"/>
<text text-anchor="middle" x="671.8338" y="-134.6" font-family="Times,serif" font-size="14.00" fill="#000000">Separate</text>
<text text-anchor="middle" x="671.8338" y="-117.8" font-family="Times,serif" font-size="14.00" fill="#000000">key/value ?</text>
</g>
<!-- ad2&#45;&gt;skv22 -->
<g id="edge4" class="edge">
<title>ad2&#45;&gt;skv22</title>
<path fill="none" stroke="#000000" d="M583.8606,-237.2246C600.5764,-216.9269 623.008,-189.6885 641.0362,-167.797"/>
<polygon fill="#000000" stroke="#000000" points="643.8049,-169.9407 647.4603,-159.9964 638.4014,-165.4908 643.8049,-169.9407"/>
<text text-anchor="middle" x="629.8338" y="-194.2" font-family="Times,serif" font-size="14.00" fill="#000000">no</text>
</g>
<!-- multimap -->
<g id="node18" class="node">
<title>multimap</title>
<polygon fill="none" stroke="#000000" points="69.5022,-36 .1654,-36 .1654,0 69.5022,0 69.5022,-36"/>
<text text-anchor="middle" x="34.8338" y="-13.8" font-family="Times,serif" font-size="14.00" fill="#000000">multimap</text>
</g>
<!-- skv11&#45;&gt;multimap -->
<g id="edge5" class="edge">
<title>skv11&#45;&gt;multimap</title>
<path fill="none" stroke="#000000" d="M83.5296,-98.4913C73.3544,-81.6723 61.0048,-61.259 51.2884,-45.1984"/>
<polygon fill="#000000" stroke="#000000" points="54.0791,-43.0496 45.9081,-36.3052 48.0898,-46.673 54.0791,-43.0496"/>
<text text-anchor="middle" x="74.1634" y="-58.2" font-family="Times,serif" font-size="14.00" fill="#000000">yes</text>
</g>
<!-- multiset -->
<g id="node19" class="node">
<title>multiset</title>
<polygon fill="none" stroke="#000000" points="148.4461,-36 87.2215,-36 87.2215,0 148.4461,0 148.4461,-36"/>
<text text-anchor="middle" x="117.8338" y="-13.8" font-family="Times,serif" font-size="14.00" fill="#000000">multiset</text>
</g>
<!-- skv11&#45;&gt;multiset -->
<g id="edge6" class="edge">
<title>skv11&#45;&gt;multiset</title>
<path fill="none" stroke="#000000" d="M108.0801,-91.0879C110.0533,-76.3019 112.256,-59.7966 114.0681,-46.2175"/>
<polygon fill="#000000" stroke="#000000" points="117.5722,-46.4185 115.4259,-36.0434 110.6338,-45.4925 117.5722,-46.4185"/>
<text text-anchor="middle" x="120.8338" y="-58.2" font-family="Times,serif" font-size="14.00" fill="#000000">no</text>
</g>
<!-- map -->
<g id="node20" class="node">
<title>map</title>
<polygon fill="none" stroke="#000000" points="235.8338,-36 181.8338,-36 181.8338,0 235.8338,0 235.8338,-36"/>
<text text-anchor="middle" x="208.8338" y="-13.8" font-family="Times,serif" font-size="14.00" fill="#000000">map</text>
</g>
<!-- skv12&#45;&gt;map -->
<g id="edge7" class="edge">
<title>skv12&#45;&gt;map</title>
<path fill="none" stroke="#000000" d="M260.7778,-99.0903C249.824,-81.9903 236.4023,-61.0375 225.9462,-44.7143"/>
<polygon fill="#000000" stroke="#000000" points="228.818,-42.7088 220.4769,-36.1761 222.9236,-46.4846 228.818,-42.7088"/>
<text text-anchor="middle" x="250.1634" y="-58.2" font-family="Times,serif" font-size="14.00" fill="#000000">yes</text>
</g>
<!-- set -->
<g id="node21" class="node">
<title>set</title>
<polygon fill="none" stroke="#000000" points="307.8338,-36 253.8338,-36 253.8338,0 307.8338,0 307.8338,-36"/>
<text text-anchor="middle" x="280.8338" y="-13.8" font-family="Times,serif" font-size="14.00" fill="#000000">set</text>
</g>
<!-- skv12&#45;&gt;set -->
<g id="edge8" class="edge">
<title>skv12&#45;&gt;set</title>
<path fill="none" stroke="#000000" d="M280.8338,-88.5464C280.8338,-74.4053 280.8338,-58.9655 280.8338,-46.1453"/>
<polygon fill="#000000" stroke="#000000" points="284.3339,-46.0785 280.8338,-36.0785 277.3339,-46.0785 284.3339,-46.0785"/>
<text text-anchor="middle" x="287.8338" y="-58.2" font-family="Times,serif" font-size="14.00" fill="#000000">no</text>
</g>
<!-- unordered_multimap -->
<g id="node22" class="node">
<title>unordered_multimap</title>
<polygon fill="none" stroke="#000000" points="459.7525,-36 325.9151,-36 325.9151,0 459.7525,0 459.7525,-36"/>
<text text-anchor="middle" x="392.8338" y="-13.8" font-family="Times,serif" font-size="14.00" fill="#000000">unordered_multimap</text>
</g>
<!-- skv21&#45;&gt;unordered_multimap -->
<g id="edge9" class="edge">
<title>skv21&#45;&gt;unordered_multimap</title>
<path fill="none" stroke="#000000" d="M468.0859,-101.7459C451.9688,-83.8097 431.3829,-60.9002 415.8176,-43.578"/>
<polygon fill="#000000" stroke="#000000" points="418.3405,-41.1491 409.0533,-36.0502 413.1338,-45.8278 418.3405,-41.1491"/>
<text text-anchor="middle" x="447.1634" y="-58.2" font-family="Times,serif" font-size="14.00" fill="#000000">yes</text>
</g>
<!-- unordered_multiset -->
<g id="node23" class="node">
<title>unordered_multiset</title>
<polygon fill="none" stroke="#000000" points="602.1965,-36 477.4711,-36 477.4711,0 602.1965,0 602.1965,-36"/>
<text text-anchor="middle" x="539.8338" y="-13.8" font-family="Times,serif" font-size="14.00" fill="#000000">unordered_multiset</text>
</g>
<!-- skv21&#45;&gt;unordered_multiset -->
<g id="edge10" class="edge">
<title>skv21&#45;&gt;unordered_multiset</title>
<path fill="none" stroke="#000000" d="M508.0107,-95.7591C514.637,-79.5678 522.415,-60.5623 528.6228,-45.3939"/>
<polygon fill="#000000" stroke="#000000" points="531.8991,-46.6289 532.4475,-36.0483 525.4206,-43.9776 531.8991,-46.6289"/>
<text text-anchor="middle" x="532.8338" y="-58.2" font-family="Times,serif" font-size="14.00" fill="#000000">no</text>
</g>
<!-- unordered_map -->
<g id="node24" class="node">
<title>unordered_map</title>
<polygon fill="none" stroke="#000000" points="723.6895,-36 619.9781,-36 619.9781,0 723.6895,0 723.6895,-36"/>
<text text-anchor="middle" x="671.8338" y="-13.8" font-family="Times,serif" font-size="14.00" fill="#000000">unordered_map</text>
</g>
<!-- skv22&#45;&gt;unordered_map -->
<g id="edge11" class="edge">
<title>skv22&#45;&gt;unordered_map</title>
<path fill="none" stroke="#000000" d="M671.8338,-88.5464C671.8338,-74.4053 671.8338,-58.9655 671.8338,-46.1453"/>
<polygon fill="#000000" stroke="#000000" points="675.3339,-46.0785 671.8338,-36.0785 668.3339,-46.0785 675.3339,-46.0785"/>
<text text-anchor="middle" x="681.1634" y="-58.2" font-family="Times,serif" font-size="14.00" fill="#000000">yes</text>
</g>
<!-- unordered_set -->
<g id="node25" class="node">
<title>unordered_set</title>
<polygon fill="none" stroke="#000000" points="837.6345,-36 742.0331,-36 742.0331,0 837.6345,0 837.6345,-36"/>
<text text-anchor="middle" x="789.8338" y="-13.8" font-family="Times,serif" font-size="14.00" fill="#000000">unordered_set</text>
</g>
<!-- skv22&#45;&gt;unordered_set -->
<g id="edge12" class="edge">
<title>skv22&#45;&gt;unordered_set</title>
<path fill="none" stroke="#000000" d="M700.3983,-103.1911C719.4965,-84.9992 744.4537,-61.2264 763.1499,-43.4175"/>
<polygon fill="#000000" stroke="#000000" points="765.9171,-45.6154 770.7439,-36.1839 761.0891,-40.5468 765.9171,-45.6154"/>
<text text-anchor="middle" x="758.8338" y="-58.2" font-family="Times,serif" font-size="14.00" fill="#000000">no</text>
</g>
</g>
</svg>
