<?xml version="1.0" encoding="UTF-8" standalone="no"?>
<!DOCTYPE svg PUBLIC "-//W3C//DTD SVG 1.1//EN"
 "http://www.w3.org/Graphics/SVG/1.1/DTD/svg11.dtd">
<!-- Generated by graphviz version 2.40.1 (20161225.0304)
 -->
<!-- Title: G Pages: 1 -->
<svg width="1081pt" height="552pt"
 viewBox="0.00 0.00 1081.00 552.00" xmlns="http://www.w3.org/2000/svg" xmlns:xlink="http://www.w3.org/1999/xlink">
<g id="graph0" class="graph" transform="scale(1 1) rotate(0) translate(4 548)">
<title>G</title>
<polygon fill="#ffffff" stroke="transparent" points="-4,4 -4,-548 1077,-548 1077,4 -4,4"/>
<!-- start -->
<g id="node1" class="node">
<title>start</title>
<path fill="none" stroke="#000000" d="M244,-524C244,-524 214,-524 214,-524 208,-524 202,-518 202,-512 202,-512 202,-500 202,-500 202,-494 208,-488 214,-488 214,-488 244,-488 244,-488 250,-488 256,-494 256,-500 256,-500 256,-512 256,-512 256,-518 250,-524 244,-524"/>
<text text-anchor="middle" x="229" y="-502.3" font-family="Times,serif" font-size="14.00" fill="#000000">start</text>
</g>
<!-- pea -->
<g id="node3" class="node">
<title>pea</title>
<polygon fill="none" stroke="#000000" points="393,-544 292,-506 393,-468 494,-506 393,-544"/>
<text text-anchor="middle" x="393" y="-509.8" font-family="Times,serif" font-size="14.00" fill="#000000">Point</text>
<text text-anchor="middle" x="393" y="-494.8" font-family="Times,serif" font-size="14.00" fill="#000000">existing array ?</text>
</g>
<!-- start&#45;&gt;pea -->
<g id="edge13" class="edge">
<title>start&#45;&gt;pea</title>
<path fill="none" stroke="#000000" d="M256.2266,-506C264.6462,-506 273.0658,-506 281.4855,-506"/>
<polygon fill="#000000" stroke="#000000" points="281.7556,-509.5001 291.7556,-506 281.7556,-502.5001 281.7556,-509.5001"/>
</g>
<!-- fbk -->
<g id="node2" class="node">
<title>fbk</title>
<polygon fill="none" stroke="#000000" points="589,-544 530,-506 589,-468 648,-506 589,-544"/>
<text text-anchor="middle" x="589" y="-509.8" font-family="Times,serif" font-size="14.00" fill="#000000">Find by</text>
<text text-anchor="middle" x="589" y="-494.8" font-family="Times,serif" font-size="14.00" fill="#000000">key ?</text>
</g>
<!-- sv -->
<g id="node4" class="node">
<title>sv</title>
<polygon fill="none" stroke="#000000" points="769,-544 716,-506 769,-468 822,-506 769,-544"/>
<text text-anchor="middle" x="769" y="-509.8" font-family="Times,serif" font-size="14.00" fill="#000000">Size</text>
<text text-anchor="middle" x="769" y="-494.8" font-family="Times,serif" font-size="14.00" fill="#000000">varie ?</text>
</g>
<!-- fbk&#45;&gt;sv -->
<g id="edge17" class="edge">
<title>fbk&#45;&gt;sv</title>
<path fill="none" stroke="#000000" d="M648.4376,-506C666.8412,-506 687.1795,-506 705.8268,-506"/>
<polygon fill="#000000" stroke="#000000" points="705.9895,-509.5001 715.9894,-506 705.9894,-502.5001 705.9895,-509.5001"/>
<text text-anchor="middle" x="682" y="-512.8" font-family="Times,serif" font-size="14.00" fill="#000000">no</text>
</g>
<!-- sbk -->
<g id="node7" class="node">
<title>sbk</title>
<polygon fill="none" stroke="#000000" points="557,-417 501,-379 557,-341 613,-379 557,-417"/>
<text text-anchor="middle" x="557" y="-382.8" font-family="Times,serif" font-size="14.00" fill="#000000">Sort by</text>
<text text-anchor="middle" x="557" y="-367.8" font-family="Times,serif" font-size="14.00" fill="#000000">key ?</text>
</g>
<!-- fbk&#45;&gt;sbk -->
<g id="edge16" class="edge">
<title>fbk&#45;&gt;sbk</title>
<path fill="none" stroke="#000000" d="M580.7592,-473.2943C576.8027,-457.5918 572.0109,-438.5743 567.7699,-421.743"/>
<polygon fill="#000000" stroke="#000000" points="571.0502,-420.4366 565.2129,-411.5948 564.2623,-422.1469 571.0502,-420.4366"/>
<text text-anchor="middle" x="583.5" y="-438.8" font-family="Times,serif" font-size="14.00" fill="#000000">yes</text>
</g>
<!-- pea&#45;&gt;fbk -->
<g id="edge15" class="edge">
<title>pea&#45;&gt;fbk</title>
<path fill="none" stroke="#000000" d="M494.1577,-506C502.8753,-506 511.5595,-506 519.9341,-506"/>
<polygon fill="#000000" stroke="#000000" points="519.9771,-509.5001 529.9771,-506 519.977,-502.5001 519.9771,-509.5001"/>
<text text-anchor="middle" x="512" y="-512.8" font-family="Times,serif" font-size="14.00" fill="#000000">no</text>
</g>
<!-- span -->
<g id="node27" class="node">
<title>span</title>
<polygon fill="none" stroke="#000000" points="420,-397 366,-397 366,-361 420,-361 420,-397"/>
<text text-anchor="middle" x="393" y="-375.3" font-family="Times,serif" font-size="14.00" fill="#000000">span</text>
</g>
<!-- pea&#45;&gt;span -->
<g id="edge14" class="edge">
<title>pea&#45;&gt;span</title>
<path fill="none" stroke="#000000" d="M393,-467.8958C393,-448.4426 393,-425.1822 393,-407.3349"/>
<polygon fill="#000000" stroke="#000000" points="396.5001,-407.2635 393,-397.2636 389.5001,-407.2636 396.5001,-407.2635"/>
<text text-anchor="middle" x="402.5" y="-438.8" font-family="Times,serif" font-size="14.00" fill="#000000">yes</text>
</g>
<!-- sc -->
<g id="node5" class="node">
<title>sc</title>
<polygon fill="none" stroke="#000000" points="927,-544 872,-506 927,-468 982,-506 927,-544"/>
<text text-anchor="middle" x="927" y="-509.8" font-family="Times,serif" font-size="14.00" fill="#000000">Size is</text>
<text text-anchor="middle" x="927" y="-494.8" font-family="Times,serif" font-size="14.00" fill="#000000">const ?</text>
</g>
<!-- sv&#45;&gt;sc -->
<g id="edge19" class="edge">
<title>sv&#45;&gt;sc</title>
<path fill="none" stroke="#000000" d="M822.0512,-506C834.8389,-506 848.6471,-506 861.9146,-506"/>
<polygon fill="#000000" stroke="#000000" points="861.9291,-509.5001 871.929,-506 861.929,-502.5001 861.9291,-509.5001"/>
<text text-anchor="middle" x="847" y="-512.8" font-family="Times,serif" font-size="14.00" fill="#000000">no</text>
</g>
<!-- ncs -->
<g id="node8" class="node">
<title>ncs</title>
<polygon fill="none" stroke="#000000" points="769,-417 661,-379 769,-341 877,-379 769,-417"/>
<text text-anchor="middle" x="769" y="-382.8" font-family="Times,serif" font-size="14.00" fill="#000000">Need contiguous</text>
<text text-anchor="middle" x="769" y="-367.8" font-family="Times,serif" font-size="14.00" fill="#000000">storage ?</text>
</g>
<!-- sv&#45;&gt;ncs -->
<g id="edge18" class="edge">
<title>sv&#45;&gt;ncs</title>
<path fill="none" stroke="#000000" d="M769,-467.8958C769,-455.0868 769,-440.6272 769,-427.1491"/>
<polygon fill="#000000" stroke="#000000" points="772.5001,-427.0773 769,-417.0773 765.5001,-427.0773 772.5001,-427.0773"/>
<text text-anchor="middle" x="778.5" y="-438.8" font-family="Times,serif" font-size="14.00" fill="#000000">yes</text>
</g>
<!-- array -->
<g id="node6" class="node">
<title>array</title>
<polygon fill="none" stroke="#000000" points="1073,-524 1019,-524 1019,-488 1073,-488 1073,-524"/>
<text text-anchor="middle" x="1046" y="-502.3" font-family="Times,serif" font-size="14.00" fill="#000000">array</text>
</g>
<!-- sc&#45;&gt;array -->
<g id="edge24" class="edge">
<title>sc&#45;&gt;array</title>
<path fill="none" stroke="#000000" d="M982.3195,-506C991.2815,-506 1000.3707,-506 1008.7683,-506"/>
<polygon fill="#000000" stroke="#000000" points="1008.9738,-509.5001 1018.9738,-506 1008.9738,-502.5001 1008.9738,-509.5001"/>
<text text-anchor="middle" x="1000.5" y="-512.8" font-family="Times,serif" font-size="14.00" fill="#000000">yes</text>
</g>
<!-- vector -->
<g id="node9" class="node">
<title>vector</title>
<polygon fill="none" stroke="#000000" points="968,-397 914,-397 914,-361 968,-361 968,-397"/>
<text text-anchor="middle" x="941" y="-375.3" font-family="Times,serif" font-size="14.00" fill="#000000">vector</text>
</g>
<!-- sc&#45;&gt;vector -->
<g id="edge25" class="edge">
<title>sc&#45;&gt;vector</title>
<path fill="none" stroke="#000000" d="M930.8998,-470.6234C933.115,-450.5287 935.8492,-425.7252 937.9139,-406.995"/>
<polygon fill="#000000" stroke="#000000" points="941.397,-407.3403 939.0139,-397.017 934.4391,-406.5732 941.397,-407.3403"/>
<text text-anchor="middle" x="941" y="-438.8" font-family="Times,serif" font-size="14.00" fill="#000000">no</text>
</g>
<!-- ad1 -->
<g id="node12" class="node">
<title>ad1</title>
<polygon fill="none" stroke="#000000" points="281,-290 205,-252 281,-214 357,-252 281,-290"/>
<text text-anchor="middle" x="281" y="-255.8" font-family="Times,serif" font-size="14.00" fill="#000000">Allow</text>
<text text-anchor="middle" x="281" y="-240.8" font-family="Times,serif" font-size="14.00" fill="#000000">duplicate ?</text>
</g>
<!-- sbk&#45;&gt;ad1 -->
<g id="edge26" class="edge">
<title>sbk&#45;&gt;ad1</title>
<path fill="none" stroke="#000000" d="M523.4329,-363.5543C475.2223,-341.3704 386.0601,-300.3429 330.3406,-274.7038"/>
<polygon fill="#000000" stroke="#000000" points="331.5679,-271.4158 321.0204,-270.4152 328.6418,-277.7749 331.5679,-271.4158"/>
<text text-anchor="middle" x="437.5" y="-311.8" font-family="Times,serif" font-size="14.00" fill="#000000">yes</text>
</g>
<!-- ad2 -->
<g id="node13" class="node">
<title>ad2</title>
<polygon fill="none" stroke="#000000" points="557,-290 481,-252 557,-214 633,-252 557,-290"/>
<text text-anchor="middle" x="557" y="-255.8" font-family="Times,serif" font-size="14.00" fill="#000000">Allow</text>
<text text-anchor="middle" x="557" y="-240.8" font-family="Times,serif" font-size="14.00" fill="#000000">duplicate ?</text>
</g>
<!-- sbk&#45;&gt;ad2 -->
<g id="edge27" class="edge">
<title>sbk&#45;&gt;ad2</title>
<path fill="none" stroke="#000000" d="M557,-340.8958C557,-328.0868 557,-313.6272 557,-300.1491"/>
<polygon fill="#000000" stroke="#000000" points="560.5001,-300.0773 557,-290.0773 553.5001,-300.0773 560.5001,-300.0773"/>
<text text-anchor="middle" x="564" y="-311.8" font-family="Times,serif" font-size="14.00" fill="#000000">no</text>
</g>
<!-- ncs&#45;&gt;vector -->
<g id="edge20" class="edge">
<title>ncs&#45;&gt;vector</title>
<path fill="none" stroke="#000000" d="M877.4422,-379C886.7709,-379 895.7208,-379 903.8095,-379"/>
<polygon fill="#000000" stroke="#000000" points="903.9062,-382.5001 913.9062,-379 903.9061,-375.5001 903.9062,-382.5001"/>
<text text-anchor="middle" x="895.5" y="-385.8" font-family="Times,serif" font-size="14.00" fill="#000000">yes</text>
</g>
<!-- ieim -->
<g id="node10" class="node">
<title>ieim</title>
<polygon fill="none" stroke="#000000" points="786,-290 687,-252 786,-214 885,-252 786,-290"/>
<text text-anchor="middle" x="786" y="-255.8" font-family="Times,serif" font-size="14.00" fill="#000000">Insert/erase</text>
<text text-anchor="middle" x="786" y="-240.8" font-family="Times,serif" font-size="14.00" fill="#000000">in the middle ?</text>
</g>
<!-- ncs&#45;&gt;ieim -->
<g id="edge21" class="edge">
<title>ncs&#45;&gt;ieim</title>
<path fill="none" stroke="#000000" d="M773.8715,-342.6069C775.7032,-328.9232 777.8116,-313.1721 779.7514,-298.6804"/>
<polygon fill="#000000" stroke="#000000" points="783.27,-298.7744 781.1278,-288.3984 776.3319,-297.8456 783.27,-298.7744"/>
<text text-anchor="middle" x="786" y="-311.8" font-family="Times,serif" font-size="14.00" fill="#000000">no</text>
</g>
<!-- deque -->
<g id="node11" class="node">
<title>deque</title>
<polygon fill="none" stroke="#000000" points="975,-270 921,-270 921,-234 975,-234 975,-270"/>
<text text-anchor="middle" x="948" y="-248.3" font-family="Times,serif" font-size="14.00" fill="#000000">deque</text>
</g>
<!-- ieim&#45;&gt;deque -->
<g id="edge23" class="edge">
<title>ieim&#45;&gt;deque</title>
<path fill="none" stroke="#000000" d="M885.3666,-252C894.282,-252 902.8842,-252 910.7093,-252"/>
<polygon fill="#000000" stroke="#000000" points="910.8549,-255.5001 920.8549,-252 910.8549,-248.5001 910.8549,-255.5001"/>
<text text-anchor="middle" x="903" y="-258.8" font-family="Times,serif" font-size="14.00" fill="#000000">no</text>
</g>
<!-- list -->
<g id="node26" class="node">
<title>list</title>
<polygon fill="none" stroke="#000000" points="818,-143 764,-143 764,-107 818,-107 818,-143"/>
<text text-anchor="middle" x="791" y="-121.3" font-family="Times,serif" font-size="14.00" fill="#000000">list</text>
</g>
<!-- ieim&#45;&gt;list -->
<g id="edge22" class="edge">
<title>ieim&#45;&gt;list</title>
<path fill="none" stroke="#000000" d="M787.4866,-214.2397C788.2579,-194.6505 789.184,-171.1273 789.8917,-153.151"/>
<polygon fill="#000000" stroke="#000000" points="793.3943,-153.1501 790.2905,-143.0201 786.3998,-152.8746 793.3943,-153.1501"/>
<text text-anchor="middle" x="798.5" y="-184.8" font-family="Times,serif" font-size="14.00" fill="#000000">yes</text>
</g>
<!-- skv11 -->
<g id="node14" class="node">
<title>skv11</title>
<polygon fill="none" stroke="#000000" points="105,-163 26,-125 105,-87 184,-125 105,-163"/>
<text text-anchor="middle" x="105" y="-128.8" font-family="Times,serif" font-size="14.00" fill="#000000">Separate</text>
<text text-anchor="middle" x="105" y="-113.8" font-family="Times,serif" font-size="14.00" fill="#000000">key/value ?</text>
</g>
<!-- ad1&#45;&gt;skv11 -->
<g id="edge1" class="edge">
<title>ad1&#45;&gt;skv11</title>
<path fill="none" stroke="#000000" d="M249.5347,-229.2949C220.3088,-208.2058 176.6555,-176.7059 144.974,-153.8449"/>
<polygon fill="#000000" stroke="#000000" points="146.9436,-150.95 136.7863,-147.9367 142.8475,-156.6265 146.9436,-150.95"/>
<text text-anchor="middle" x="208.5" y="-184.8" font-family="Times,serif" font-size="14.00" fill="#000000">yes</text>
</g>
<!-- skv12 -->
<g id="node15" class="node">
<title>skv12</title>
<polygon fill="none" stroke="#000000" points="281,-163 202,-125 281,-87 360,-125 281,-163"/>
<text text-anchor="middle" x="281" y="-128.8" font-family="Times,serif" font-size="14.00" fill="#000000">Separate</text>
<text text-anchor="middle" x="281" y="-113.8" font-family="Times,serif" font-size="14.00" fill="#000000">key/value ?</text>
</g>
<!-- ad1&#45;&gt;skv12 -->
<g id="edge2" class="edge">
<title>ad1&#45;&gt;skv12</title>
<path fill="none" stroke="#000000" d="M281,-213.8958C281,-201.0868 281,-186.6272 281,-173.1491"/>
<polygon fill="#000000" stroke="#000000" points="284.5001,-173.0773 281,-163.0773 277.5001,-173.0773 284.5001,-173.0773"/>
<text text-anchor="middle" x="288" y="-184.8" font-family="Times,serif" font-size="14.00" fill="#000000">no</text>
</g>
<!-- skv21 -->
<g id="node16" class="node">
<title>skv21</title>
<polygon fill="none" stroke="#000000" points="491,-163 412,-125 491,-87 570,-125 491,-163"/>
<text text-anchor="middle" x="491" y="-128.8" font-family="Times,serif" font-size="14.00" fill="#000000">Separate</text>
<text text-anchor="middle" x="491" y="-113.8" font-family="Times,serif" font-size="14.00" fill="#000000">key/value ?</text>
</g>
<!-- ad2&#45;&gt;skv21 -->
<g id="edge3" class="edge">
<title>ad2&#45;&gt;skv21</title>
<path fill="none" stroke="#000000" d="M541.1914,-221.5803C532.3176,-204.5052 521.143,-183.0024 511.5916,-164.6232"/>
<polygon fill="#000000" stroke="#000000" points="514.6254,-162.871 506.9084,-155.6116 508.4141,-166.0989 514.6254,-162.871"/>
<text text-anchor="middle" x="535.5" y="-184.8" font-family="Times,serif" font-size="14.00" fill="#000000">yes</text>
</g>
<!-- skv22 -->
<g id="node17" class="node">
<title>skv22</title>
<polygon fill="none" stroke="#000000" points="667,-163 588,-125 667,-87 746,-125 667,-163"/>
<text text-anchor="middle" x="667" y="-128.8" font-family="Times,serif" font-size="14.00" fill="#000000">Separate</text>
<text text-anchor="middle" x="667" y="-113.8" font-family="Times,serif" font-size="14.00" fill="#000000">key/value ?</text>
</g>
<!-- ad2&#45;&gt;skv22 -->
<g id="edge4" class="edge">
<title>ad2&#45;&gt;skv22</title>
<path fill="none" stroke="#000000" d="M580.0596,-225.3766C596.5949,-206.2859 619.0245,-180.3899 636.9597,-159.6828"/>
<polygon fill="#000000" stroke="#000000" points="639.6904,-161.8761 643.5919,-152.0257 634.3992,-157.2931 639.6904,-161.8761"/>
<text text-anchor="middle" x="623" y="-184.8" font-family="Times,serif" font-size="14.00" fill="#000000">no</text>
</g>
<!-- multimap -->
<g id="node18" class="node">
<title>multimap</title>
<polygon fill="none" stroke="#000000" points="70,-36 0,-36 0,0 70,0 70,-36"/>
<text text-anchor="middle" x="35" y="-14.3" font-family="Times,serif" font-size="14.00" fill="#000000">multimap</text>
</g>
<!-- skv11&#45;&gt;multimap -->
<g id="edge5" class="edge">
<title>skv11&#45;&gt;multimap</title>
<path fill="none" stroke="#000000" d="M86.057,-96.0443C75.6321,-80.1091 62.7808,-60.4649 52.5796,-44.8717"/>
<polygon fill="#000000" stroke="#000000" points="55.3215,-42.6696 46.9179,-36.2174 49.4636,-46.5018 55.3215,-42.6696"/>
<text text-anchor="middle" x="77.5" y="-57.8" font-family="Times,serif" font-size="14.00" fill="#000000">yes</text>
</g>
<!-- multiset -->
<g id="node19" class="node">
<title>multiset</title>
<polygon fill="none" stroke="#000000" points="149.5,-36 88.5,-36 88.5,0 149.5,0 149.5,-36"/>
<text text-anchor="middle" x="119" y="-14.3" font-family="Times,serif" font-size="14.00" fill="#000000">multiset</text>
</g>
<!-- skv11&#45;&gt;multiset -->
<g id="edge6" class="edge">
<title>skv11&#45;&gt;multiset</title>
<path fill="none" stroke="#000000" d="M109.7007,-89.0729C111.5129,-75.2229 113.5563,-59.6054 115.2651,-46.5449"/>
<polygon fill="#000000" stroke="#000000" points="118.7825,-46.6401 116.6095,-36.2705 111.8416,-45.7319 118.7825,-46.6401"/>
<text text-anchor="middle" x="122" y="-57.8" font-family="Times,serif" font-size="14.00" fill="#000000">no</text>
</g>
<!-- map -->
<g id="node20" class="node">
<title>map</title>
<polygon fill="none" stroke="#000000" points="236,-36 182,-36 182,0 236,0 236,-36"/>
<text text-anchor="middle" x="209" y="-14.3" font-family="Times,serif" font-size="14.00" fill="#000000">map</text>
</g>
<!-- skv12&#45;&gt;map -->
<g id="edge7" class="edge">
<title>skv12&#45;&gt;map</title>
<path fill="none" stroke="#000000" d="M261.5158,-96.0443C250.793,-80.1091 237.5745,-60.4649 227.0819,-44.8717"/>
<polygon fill="#000000" stroke="#000000" points="229.745,-42.56 221.2584,-36.2174 223.9374,-46.4679 229.745,-42.56"/>
<text text-anchor="middle" x="252.5" y="-57.8" font-family="Times,serif" font-size="14.00" fill="#000000">yes</text>
</g>
<!-- set -->
<g id="node21" class="node">
<title>set</title>
<polygon fill="none" stroke="#000000" points="308,-36 254,-36 254,0 308,0 308,-36"/>
<text text-anchor="middle" x="281" y="-14.3" font-family="Times,serif" font-size="14.00" fill="#000000">set</text>
</g>
<!-- skv12&#45;&gt;set -->
<g id="edge8" class="edge">
<title>skv12&#45;&gt;set</title>
<path fill="none" stroke="#000000" d="M281,-86.9745C281,-73.5944 281,-58.8013 281,-46.3572"/>
<polygon fill="#000000" stroke="#000000" points="284.5001,-46.1208 281,-36.1208 277.5001,-46.1208 284.5001,-46.1208"/>
<text text-anchor="middle" x="288" y="-57.8" font-family="Times,serif" font-size="14.00" fill="#000000">no</text>
</g>
<!-- unordered_multimap -->
<g id="node22" class="node">
<title>unordered_multimap</title>
<polygon fill="none" stroke="#000000" points="457.5,-36 326.5,-36 326.5,0 457.5,0 457.5,-36"/>
<text text-anchor="middle" x="392" y="-14.3" font-family="Times,serif" font-size="14.00" fill="#000000">unordered_multimap</text>
</g>
<!-- skv21&#45;&gt;unordered_multimap -->
<g id="edge9" class="edge">
<title>skv21&#45;&gt;unordered_multimap</title>
<path fill="none" stroke="#000000" d="M466.5281,-98.5506C451.077,-81.8509 431.2109,-60.3795 415.8754,-43.8048"/>
<polygon fill="#000000" stroke="#000000" points="418.1107,-41.067 408.7502,-36.1038 412.9726,-45.8209 418.1107,-41.067"/>
<text text-anchor="middle" x="448.5" y="-57.8" font-family="Times,serif" font-size="14.00" fill="#000000">yes</text>
</g>
<!-- unordered_multiset -->
<g id="node23" class="node">
<title>unordered_multiset</title>
<polygon fill="none" stroke="#000000" points="598,-36 476,-36 476,0 598,0 598,-36"/>
<text text-anchor="middle" x="537" y="-14.3" font-family="Times,serif" font-size="14.00" fill="#000000">unordered_multiset</text>
</g>
<!-- skv21&#45;&gt;unordered_multiset -->
<g id="edge10" class="edge">
<title>skv21&#45;&gt;unordered_multiset</title>
<path fill="none" stroke="#000000" d="M504.5527,-93.4752C511.0556,-78.349 518.7779,-60.3862 525.0573,-45.7798"/>
<polygon fill="#000000" stroke="#000000" points="528.4072,-46.8493 529.1413,-36.28 521.9763,-44.0846 528.4072,-46.8493"/>
<text text-anchor="middle" x="528" y="-57.8" font-family="Times,serif" font-size="14.00" fill="#000000">no</text>
</g>
<!-- unordered_map -->
<g id="node24" class="node">
<title>unordered_map</title>
<polygon fill="none" stroke="#000000" points="718,-36 616,-36 616,0 718,0 718,-36"/>
<text text-anchor="middle" x="667" y="-14.3" font-family="Times,serif" font-size="14.00" fill="#000000">unordered_map</text>
</g>
<!-- skv22&#45;&gt;unordered_map -->
<g id="edge11" class="edge">
<title>skv22&#45;&gt;unordered_map</title>
<path fill="none" stroke="#000000" d="M667,-86.9745C667,-73.5944 667,-58.8013 667,-46.3572"/>
<polygon fill="#000000" stroke="#000000" points="670.5001,-46.1208 667,-36.1208 663.5001,-46.1208 670.5001,-46.1208"/>
<text text-anchor="middle" x="676.5" y="-57.8" font-family="Times,serif" font-size="14.00" fill="#000000">yes</text>
</g>
<!-- unordered_set -->
<g id="node25" class="node">
<title>unordered_set</title>
<polygon fill="none" stroke="#000000" points="829.5,-36 736.5,-36 736.5,0 829.5,0 829.5,-36"/>
<text text-anchor="middle" x="783" y="-14.3" font-family="Times,serif" font-size="14.00" fill="#000000">unordered_set</text>
</g>
<!-- skv22&#45;&gt;unordered_set -->
<g id="edge12" class="edge">
<title>skv22&#45;&gt;unordered_set</title>
<path fill="none" stroke="#000000" d="M694.1968,-99.9133C712.7127,-82.834 737.1287,-60.3123 755.6723,-43.2075"/>
<polygon fill="#000000" stroke="#000000" points="758.2482,-45.593 763.2257,-36.2401 753.5021,-40.4477 758.2482,-45.593"/>
<text text-anchor="middle" x="750" y="-57.8" font-family="Times,serif" font-size="14.00" fill="#000000">no</text>
</g>
</g>
</svg>
