<?xml version="1.0" encoding="UTF-8" standalone="no"?>
<!DOCTYPE svg PUBLIC "-//W3C//DTD SVG 1.1//EN"
 "http://www.w3.org/Graphics/SVG/1.1/DTD/svg11.dtd">
<!-- Generated by graphviz version 2.40.1 (20161225.0304)
 -->
<!-- Title: core Pages: 1 -->
<svg width="970pt" height="752pt"
 viewBox="0.00 0.00 970.00 752.00" xmlns="http://www.w3.org/2000/svg" xmlns:xlink="http://www.w3.org/1999/xlink">
<g id="graph0" class="graph" transform="scale(1 1) rotate(0) translate(4 748)">
<title>core</title>
<polygon fill="#ffffff" stroke="transparent" points="-4,4 -4,-748 966,-748 966,4 -4,4"/>
<!-- start -->
<g id="node1" class="node start">
<title>start</title>
<path fill="#32cd32" stroke="#000000" d="M508,-744C508,-744 478,-744 478,-744 472,-744 466,-738 466,-732 466,-732 466,-720 466,-720 466,-714 472,-708 478,-708 478,-708 508,-708 508,-708 514,-708 520,-714 520,-720 520,-720 520,-732 520,-732 520,-738 514,-744 508,-744"/>
<text text-anchor="middle" x="493" y="-722.3" font-family="Times,serif" font-size="14.00" fill="#000000">start</text>
</g>
<!-- pea -->
<g id="node2" class="node if">
<title>pea</title>
<polygon fill="#ffa500" stroke="#000000" points="493,-671 381,-633 493,-595 605,-633 493,-671"/>
<text text-anchor="middle" x="493" y="-636.8" font-family="Times,serif" font-size="14.00" fill="#000000">Use existing</text>
<text text-anchor="middle" x="493" y="-621.8" font-family="Times,serif" font-size="14.00" fill="#000000">contiguous data ?</text>
</g>
<!-- start&#45;&gt;pea -->
<g id="edge13" class="edge">
<title>start&#45;&gt;pea</title>
<path fill="none" stroke="#000000" d="M493,-707.6262C493,-700.0068 493,-690.7735 493,-681.4359"/>
<polygon fill="#000000" stroke="#000000" points="496.5001,-681.3342 493,-671.3342 489.5001,-681.3342 496.5001,-681.3342"/>
</g>
<!-- span -->
<g id="node3" class="node type">
<title>span</title>
<polygon fill="#87cefa" stroke="#000000" points="696,-651 642,-651 642,-615 696,-615 696,-651"/>
<text text-anchor="middle" x="669" y="-629.3" font-family="Times,serif" font-size="14.00" fill="#000000">span</text>
</g>
<!-- pea&#45;&gt;span -->
<g id="edge14" class="edge">
<title>pea&#45;&gt;span</title>
<path fill="none" stroke="#000000" d="M605.46,-633C614.8285,-633 623.7953,-633 631.8875,-633"/>
<polygon fill="#000000" stroke="#000000" points="631.9819,-636.5001 641.9818,-633 631.9818,-629.5001 631.9819,-636.5001"/>
<text text-anchor="middle" x="623.5" y="-639.8" font-family="Times,serif" font-size="14.00" fill="#000000">yes</text>
</g>
<!-- fbk -->
<g id="node5" class="node if">
<title>fbk</title>
<polygon fill="#ffa500" stroke="#000000" points="493,-544 434,-506 493,-468 552,-506 493,-544"/>
<text text-anchor="middle" x="493" y="-509.8" font-family="Times,serif" font-size="14.00" fill="#000000">Find by</text>
<text text-anchor="middle" x="493" y="-494.8" font-family="Times,serif" font-size="14.00" fill="#000000">key ?</text>
</g>
<!-- pea&#45;&gt;fbk -->
<g id="edge15" class="edge">
<title>pea&#45;&gt;fbk</title>
<path fill="none" stroke="#000000" d="M493,-594.8958C493,-582.0868 493,-567.6272 493,-554.1491"/>
<polygon fill="#000000" stroke="#000000" points="496.5001,-554.0773 493,-544.0773 489.5001,-554.0773 496.5001,-554.0773"/>
<text text-anchor="middle" x="500" y="-565.8" font-family="Times,serif" font-size="14.00" fill="#000000">no</text>
</g>
<!-- array -->
<g id="node4" class="node type">
<title>array</title>
<polygon fill="#87cefa" stroke="#000000" points="829,-651 775,-651 775,-615 829,-615 829,-651"/>
<text text-anchor="middle" x="802" y="-629.3" font-family="Times,serif" font-size="14.00" fill="#000000">array</text>
</g>
<!-- sbk -->
<g id="node6" class="node if">
<title>sbk</title>
<polygon fill="#ffa500" stroke="#000000" points="493,-417 437,-379 493,-341 549,-379 493,-417"/>
<text text-anchor="middle" x="493" y="-382.8" font-family="Times,serif" font-size="14.00" fill="#000000">Sort by</text>
<text text-anchor="middle" x="493" y="-367.8" font-family="Times,serif" font-size="14.00" fill="#000000">key ?</text>
</g>
<!-- fbk&#45;&gt;sbk -->
<g id="edge16" class="edge">
<title>fbk&#45;&gt;sbk</title>
<path fill="none" stroke="#000000" d="M493,-467.8958C493,-455.0868 493,-440.6272 493,-427.1491"/>
<polygon fill="#000000" stroke="#000000" points="496.5001,-427.0773 493,-417.0773 489.5001,-427.0773 496.5001,-427.0773"/>
<text text-anchor="middle" x="502.5" y="-438.8" font-family="Times,serif" font-size="14.00" fill="#000000">yes</text>
</g>
<!-- sv -->
<g id="node11" class="node if">
<title>sv</title>
<polygon fill="#ffa500" stroke="#000000" points="658,-544 605,-506 658,-468 711,-506 658,-544"/>
<text text-anchor="middle" x="658" y="-509.8" font-family="Times,serif" font-size="14.00" fill="#000000">Size</text>
<text text-anchor="middle" x="658" y="-494.8" font-family="Times,serif" font-size="14.00" fill="#000000">varie ?</text>
</g>
<!-- fbk&#45;&gt;sv -->
<g id="edge17" class="edge">
<title>fbk&#45;&gt;sv</title>
<path fill="none" stroke="#000000" d="M552.1027,-506C565.943,-506 580.741,-506 594.754,-506"/>
<polygon fill="#000000" stroke="#000000" points="594.7941,-509.5001 604.7941,-506 594.794,-502.5001 594.7941,-509.5001"/>
<text text-anchor="middle" x="578.5" y="-512.8" font-family="Times,serif" font-size="14.00" fill="#000000">no</text>
</g>
<!-- ad1 -->
<g id="node13" class="node if">
<title>ad1</title>
<polygon fill="#ffa500" stroke="#000000" points="281,-290 205,-252 281,-214 357,-252 281,-290"/>
<text text-anchor="middle" x="281" y="-255.8" font-family="Times,serif" font-size="14.00" fill="#000000">Allow</text>
<text text-anchor="middle" x="281" y="-240.8" font-family="Times,serif" font-size="14.00" fill="#000000">duplicate ?</text>
</g>
<!-- sbk&#45;&gt;ad1 -->
<g id="edge28" class="edge">
<title>sbk&#45;&gt;ad1</title>
<path fill="none" stroke="#000000" d="M463.0752,-361.0734C426.9216,-339.4153 365.8129,-302.8077 324.4647,-278.0378"/>
<polygon fill="#000000" stroke="#000000" points="326.0769,-274.9237 315.6997,-272.7871 322.4796,-280.9286 326.0769,-274.9237"/>
<text text-anchor="middle" x="403.5" y="-311.8" font-family="Times,serif" font-size="14.00" fill="#000000">yes</text>
</g>
<!-- ad2 -->
<g id="node14" class="node if">
<title>ad2</title>
<polygon fill="#ffa500" stroke="#000000" points="493,-290 417,-252 493,-214 569,-252 493,-290"/>
<text text-anchor="middle" x="493" y="-255.8" font-family="Times,serif" font-size="14.00" fill="#000000">Allow</text>
<text text-anchor="middle" x="493" y="-240.8" font-family="Times,serif" font-size="14.00" fill="#000000">duplicate ?</text>
</g>
<!-- sbk&#45;&gt;ad2 -->
<g id="edge29" class="edge">
<title>sbk&#45;&gt;ad2</title>
<path fill="none" stroke="#000000" d="M493,-340.8958C493,-328.0868 493,-313.6272 493,-300.1491"/>
<polygon fill="#000000" stroke="#000000" points="496.5001,-300.0773 493,-290.0773 489.5001,-300.0773 496.5001,-300.0773"/>
<text text-anchor="middle" x="500" y="-311.8" font-family="Times,serif" font-size="14.00" fill="#000000">no</text>
</g>
<!-- cs -->
<g id="node7" class="node if">
<title>cs</title>
<polygon fill="#ffa500" stroke="#000000" points="658,-417 579,-379 658,-341 737,-379 658,-417"/>
<text text-anchor="middle" x="658" y="-382.8" font-family="Times,serif" font-size="14.00" fill="#000000">Contiguous</text>
<text text-anchor="middle" x="658" y="-367.8" font-family="Times,serif" font-size="14.00" fill="#000000">storage ?</text>
</g>
<!-- vector -->
<g id="node8" class="node type">
<title>vector</title>
<polygon fill="#87cefa" stroke="#000000" points="828,-397 774,-397 774,-361 828,-361 828,-397"/>
<text text-anchor="middle" x="801" y="-375.3" font-family="Times,serif" font-size="14.00" fill="#000000">vector</text>
</g>
<!-- cs&#45;&gt;vector -->
<g id="edge20" class="edge">
<title>cs&#45;&gt;vector</title>
<path fill="none" stroke="#000000" d="M737.0286,-379C746.2938,-379 755.3884,-379 763.6809,-379"/>
<polygon fill="#000000" stroke="#000000" points="763.7082,-382.5001 773.7082,-379 763.7082,-375.5001 763.7082,-382.5001"/>
<text text-anchor="middle" x="755.5" y="-385.8" font-family="Times,serif" font-size="14.00" fill="#000000">yes</text>
</g>
<!-- pp -->
<g id="node9" class="node if">
<title>pp</title>
<polygon fill="#ffa500" stroke="#000000" points="658,-290 588,-252 658,-214 728,-252 658,-290"/>
<text text-anchor="middle" x="658" y="-255.8" font-family="Times,serif" font-size="14.00" fill="#000000">Persistant</text>
<text text-anchor="middle" x="658" y="-240.8" font-family="Times,serif" font-size="14.00" fill="#000000">position ?</text>
</g>
<!-- cs&#45;&gt;pp -->
<g id="edge21" class="edge">
<title>cs&#45;&gt;pp</title>
<path fill="none" stroke="#000000" d="M658,-340.8958C658,-328.0868 658,-313.6272 658,-300.1491"/>
<polygon fill="#000000" stroke="#000000" points="661.5001,-300.0773 658,-290.0773 654.5001,-300.0773 661.5001,-300.0773"/>
<text text-anchor="middle" x="665" y="-311.8" font-family="Times,serif" font-size="14.00" fill="#000000">no</text>
</g>
<!-- ieim -->
<g id="node10" class="node if">
<title>ieim</title>
<polygon fill="#ffa500" stroke="#000000" points="863,-290 764,-252 863,-214 962,-252 863,-290"/>
<text text-anchor="middle" x="863" y="-255.8" font-family="Times,serif" font-size="14.00" fill="#000000">Insert/erase</text>
<text text-anchor="middle" x="863" y="-240.8" font-family="Times,serif" font-size="14.00" fill="#000000">in the middle ?</text>
</g>
<!-- pp&#45;&gt;ieim -->
<g id="edge23" class="edge">
<title>pp&#45;&gt;ieim</title>
<path fill="none" stroke="#000000" d="M728.2626,-252C736.5099,-252 745.0673,-252 753.6892,-252"/>
<polygon fill="#000000" stroke="#000000" points="753.8256,-255.5001 763.8256,-252 753.8255,-248.5001 753.8256,-255.5001"/>
<text text-anchor="middle" x="746" y="-258.8" font-family="Times,serif" font-size="14.00" fill="#000000">no</text>
</g>
<!-- list -->
<g id="node27" class="node type">
<title>list</title>
<polygon fill="#87cefa" stroke="#000000" points="818,-143 764,-143 764,-107 818,-107 818,-143"/>
<text text-anchor="middle" x="791" y="-121.3" font-family="Times,serif" font-size="14.00" fill="#000000">list</text>
</g>
<!-- pp&#45;&gt;list -->
<g id="edge22" class="edge">
<title>pp&#45;&gt;list</title>
<path fill="none" stroke="#000000" d="M684.814,-228.3144C704.5544,-210.6579 731.8693,-185.7644 755,-163 759.0482,-159.016 763.2654,-154.7123 767.328,-150.4825"/>
<polygon fill="#000000" stroke="#000000" points="770.054,-152.6946 774.4035,-143.0337 764.9787,-147.8737 770.054,-152.6946"/>
<text text-anchor="middle" x="744.5" y="-184.8" font-family="Times,serif" font-size="14.00" fill="#000000">yes</text>
</g>
<!-- ieim&#45;&gt;list -->
<g id="edge24" class="edge">
<title>ieim&#45;&gt;list</title>
<path fill="none" stroke="#000000" d="M845.2022,-220.6067C833.2669,-199.5542 817.7093,-172.1123 806.3248,-152.0313"/>
<polygon fill="#000000" stroke="#000000" points="809.2375,-150.0721 801.2609,-143.099 803.148,-153.5244 809.2375,-150.0721"/>
<text text-anchor="middle" x="838.5" y="-184.8" font-family="Times,serif" font-size="14.00" fill="#000000">yes</text>
</g>
<!-- deque -->
<g id="node28" class="node type">
<title>deque</title>
<polygon fill="#87cefa" stroke="#000000" points="890,-143 836,-143 836,-107 890,-107 890,-143"/>
<text text-anchor="middle" x="863" y="-121.3" font-family="Times,serif" font-size="14.00" fill="#000000">deque</text>
</g>
<!-- ieim&#45;&gt;deque -->
<g id="edge25" class="edge">
<title>ieim&#45;&gt;deque</title>
<path fill="none" stroke="#000000" d="M863,-213.8958C863,-194.4426 863,-171.1822 863,-153.3349"/>
<polygon fill="#000000" stroke="#000000" points="866.5001,-153.2635 863,-143.2636 859.5001,-153.2636 866.5001,-153.2635"/>
<text text-anchor="middle" x="870" y="-184.8" font-family="Times,serif" font-size="14.00" fill="#000000">no</text>
</g>
<!-- sv&#45;&gt;cs -->
<g id="edge18" class="edge">
<title>sv&#45;&gt;cs</title>
<path fill="none" stroke="#000000" d="M658,-467.8958C658,-455.0868 658,-440.6272 658,-427.1491"/>
<polygon fill="#000000" stroke="#000000" points="661.5001,-427.0773 658,-417.0773 654.5001,-427.0773 661.5001,-427.0773"/>
<text text-anchor="middle" x="667.5" y="-438.8" font-family="Times,serif" font-size="14.00" fill="#000000">yes</text>
</g>
<!-- sc -->
<g id="node12" class="node if">
<title>sc</title>
<polygon fill="#ffa500" stroke="#000000" points="802,-544 747,-506 802,-468 857,-506 802,-544"/>
<text text-anchor="middle" x="802" y="-509.8" font-family="Times,serif" font-size="14.00" fill="#000000">Size is</text>
<text text-anchor="middle" x="802" y="-494.8" font-family="Times,serif" font-size="14.00" fill="#000000">const ?</text>
</g>
<!-- sv&#45;&gt;sc -->
<g id="edge19" class="edge">
<title>sv&#45;&gt;sc</title>
<path fill="none" stroke="#000000" d="M711.2112,-506C719.4132,-506 727.965,-506 736.3988,-506"/>
<polygon fill="#000000" stroke="#000000" points="736.5962,-509.5001 746.5962,-506 736.5961,-502.5001 736.5962,-509.5001"/>
<text text-anchor="middle" x="729" y="-512.8" font-family="Times,serif" font-size="14.00" fill="#000000">no</text>
</g>
<!-- sc&#45;&gt;array -->
<g id="edge26" class="edge">
<title>sc&#45;&gt;array</title>
<path fill="none" stroke="#000000" d="M802,-544.0558C802,-563.54 802,-586.8536 802,-604.7233"/>
<polygon fill="#000000" stroke="#000000" points="798.5001,-604.804 802,-614.804 805.5001,-604.804 798.5001,-604.804"/>
<text text-anchor="middle" x="811.5" y="-565.8" font-family="Times,serif" font-size="14.00" fill="#000000">yes</text>
</g>
<!-- sc&#45;&gt;vector -->
<g id="edge27" class="edge">
<title>sc&#45;&gt;vector</title>
<path fill="none" stroke="#000000" d="M801.7,-467.8958C801.5468,-448.4426 801.3636,-425.1822 801.2231,-407.3349"/>
<polygon fill="#000000" stroke="#000000" points="804.7225,-407.2357 801.1438,-397.2636 797.7228,-407.2909 804.7225,-407.2357"/>
<text text-anchor="middle" x="808" y="-438.8" font-family="Times,serif" font-size="14.00" fill="#000000">no</text>
</g>
<!-- skv11 -->
<g id="node15" class="node if">
<title>skv11</title>
<polygon fill="#ffa500" stroke="#000000" points="105,-163 26,-125 105,-87 184,-125 105,-163"/>
<text text-anchor="middle" x="105" y="-128.8" font-family="Times,serif" font-size="14.00" fill="#000000">Separate</text>
<text text-anchor="middle" x="105" y="-113.8" font-family="Times,serif" font-size="14.00" fill="#000000">key/value ?</text>
</g>
<!-- ad1&#45;&gt;skv11 -->
<g id="edge1" class="edge">
<title>ad1&#45;&gt;skv11</title>
<path fill="none" stroke="#000000" d="M249.5347,-229.2949C220.3088,-208.2058 176.6555,-176.7059 144.974,-153.8449"/>
<polygon fill="#000000" stroke="#000000" points="146.9436,-150.95 136.7863,-147.9367 142.8475,-156.6265 146.9436,-150.95"/>
<text text-anchor="middle" x="208.5" y="-184.8" font-family="Times,serif" font-size="14.00" fill="#000000">yes</text>
</g>
<!-- skv12 -->
<g id="node16" class="node if">
<title>skv12</title>
<polygon fill="#ffa500" stroke="#000000" points="281,-163 202,-125 281,-87 360,-125 281,-163"/>
<text text-anchor="middle" x="281" y="-128.8" font-family="Times,serif" font-size="14.00" fill="#000000">Separate</text>
<text text-anchor="middle" x="281" y="-113.8" font-family="Times,serif" font-size="14.00" fill="#000000">key/value ?</text>
</g>
<!-- ad1&#45;&gt;skv12 -->
<g id="edge2" class="edge">
<title>ad1&#45;&gt;skv12</title>
<path fill="none" stroke="#000000" d="M281,-213.8958C281,-201.0868 281,-186.6272 281,-173.1491"/>
<polygon fill="#000000" stroke="#000000" points="284.5001,-173.0773 281,-163.0773 277.5001,-173.0773 284.5001,-173.0773"/>
<text text-anchor="middle" x="288" y="-184.8" font-family="Times,serif" font-size="14.00" fill="#000000">no</text>
</g>
<!-- skv21 -->
<g id="node17" class="node if">
<title>skv21</title>
<polygon fill="#ffa500" stroke="#000000" points="491,-163 412,-125 491,-87 570,-125 491,-163"/>
<text text-anchor="middle" x="491" y="-128.8" font-family="Times,serif" font-size="14.00" fill="#000000">Separate</text>
<text text-anchor="middle" x="491" y="-113.8" font-family="Times,serif" font-size="14.00" fill="#000000">key/value ?</text>
</g>
<!-- ad2&#45;&gt;skv21 -->
<g id="edge3" class="edge">
<title>ad2&#45;&gt;skv21</title>
<path fill="none" stroke="#000000" d="M492.4053,-214.2397C492.2016,-201.3047 491.9709,-186.6546 491.7562,-173.0187"/>
<polygon fill="#000000" stroke="#000000" points="495.2529,-172.7778 491.5958,-162.8341 488.2538,-172.888 495.2529,-172.7778"/>
<text text-anchor="middle" x="502.5" y="-184.8" font-family="Times,serif" font-size="14.00" fill="#000000">yes</text>
</g>
<!-- skv22 -->
<g id="node18" class="node if">
<title>skv22</title>
<polygon fill="#ffa500" stroke="#000000" points="667,-163 588,-125 667,-87 746,-125 667,-163"/>
<text text-anchor="middle" x="667" y="-128.8" font-family="Times,serif" font-size="14.00" fill="#000000">Separate</text>
<text text-anchor="middle" x="667" y="-113.8" font-family="Times,serif" font-size="14.00" fill="#000000">key/value ?</text>
</g>
<!-- ad2&#45;&gt;skv22 -->
<g id="edge4" class="edge">
<title>ad2&#45;&gt;skv22</title>
<path fill="none" stroke="#000000" d="M524.1077,-229.2949C553.0016,-208.2058 596.1588,-176.7059 627.4803,-153.8449"/>
<polygon fill="#000000" stroke="#000000" points="629.5611,-156.6593 635.5749,-147.9367 625.4342,-151.0052 629.5611,-156.6593"/>
<text text-anchor="middle" x="593" y="-184.8" font-family="Times,serif" font-size="14.00" fill="#000000">no</text>
</g>
<!-- multimap -->
<g id="node19" class="node type">
<title>multimap</title>
<polygon fill="#87cefa" stroke="#000000" points="70,-36 0,-36 0,0 70,0 70,-36"/>
<text text-anchor="middle" x="35" y="-14.3" font-family="Times,serif" font-size="14.00" fill="#000000">multimap</text>
</g>
<!-- skv11&#45;&gt;multimap -->
<g id="edge5" class="edge">
<title>skv11&#45;&gt;multimap</title>
<path fill="none" stroke="#000000" d="M86.057,-96.0443C75.6321,-80.1091 62.7808,-60.4649 52.5796,-44.8717"/>
<polygon fill="#000000" stroke="#000000" points="55.3215,-42.6696 46.9179,-36.2174 49.4636,-46.5018 55.3215,-42.6696"/>
<text text-anchor="middle" x="77.5" y="-57.8" font-family="Times,serif" font-size="14.00" fill="#000000">yes</text>
</g>
<!-- multiset -->
<g id="node20" class="node type">
<title>multiset</title>
<polygon fill="#87cefa" stroke="#000000" points="149.5,-36 88.5,-36 88.5,0 149.5,0 149.5,-36"/>
<text text-anchor="middle" x="119" y="-14.3" font-family="Times,serif" font-size="14.00" fill="#000000">multiset</text>
</g>
<!-- skv11&#45;&gt;multiset -->
<g id="edge6" class="edge">
<title>skv11&#45;&gt;multiset</title>
<path fill="none" stroke="#000000" d="M109.7007,-89.0729C111.5129,-75.2229 113.5563,-59.6054 115.2651,-46.5449"/>
<polygon fill="#000000" stroke="#000000" points="118.7825,-46.6401 116.6095,-36.2705 111.8416,-45.7319 118.7825,-46.6401"/>
<text text-anchor="middle" x="122" y="-57.8" font-family="Times,serif" font-size="14.00" fill="#000000">no</text>
</g>
<!-- map -->
<g id="node21" class="node type">
<title>map</title>
<polygon fill="#87cefa" stroke="#000000" points="236,-36 182,-36 182,0 236,0 236,-36"/>
<text text-anchor="middle" x="209" y="-14.3" font-family="Times,serif" font-size="14.00" fill="#000000">map</text>
</g>
<!-- skv12&#45;&gt;map -->
<g id="edge7" class="edge">
<title>skv12&#45;&gt;map</title>
<path fill="none" stroke="#000000" d="M261.5158,-96.0443C250.793,-80.1091 237.5745,-60.4649 227.0819,-44.8717"/>
<polygon fill="#000000" stroke="#000000" points="229.745,-42.56 221.2584,-36.2174 223.9374,-46.4679 229.745,-42.56"/>
<text text-anchor="middle" x="252.5" y="-57.8" font-family="Times,serif" font-size="14.00" fill="#000000">yes</text>
</g>
<!-- set -->
<g id="node22" class="node type">
<title>set</title>
<polygon fill="#87cefa" stroke="#000000" points="308,-36 254,-36 254,0 308,0 308,-36"/>
<text text-anchor="middle" x="281" y="-14.3" font-family="Times,serif" font-size="14.00" fill="#000000">set</text>
</g>
<!-- skv12&#45;&gt;set -->
<g id="edge8" class="edge">
<title>skv12&#45;&gt;set</title>
<path fill="none" stroke="#000000" d="M281,-86.9745C281,-73.5944 281,-58.8013 281,-46.3572"/>
<polygon fill="#000000" stroke="#000000" points="284.5001,-46.1208 281,-36.1208 277.5001,-46.1208 284.5001,-46.1208"/>
<text text-anchor="middle" x="288" y="-57.8" font-family="Times,serif" font-size="14.00" fill="#000000">no</text>
</g>
<!-- unordered_multimap -->
<g id="node23" class="node type">
<title>unordered_multimap</title>
<polygon fill="#87cefa" stroke="#000000" points="457.5,-36 326.5,-36 326.5,0 457.5,0 457.5,-36"/>
<text text-anchor="middle" x="392" y="-14.3" font-family="Times,serif" font-size="14.00" fill="#000000">unordered_multimap</text>
</g>
<!-- skv21&#45;&gt;unordered_multimap -->
<g id="edge9" class="edge">
<title>skv21&#45;&gt;unordered_multimap</title>
<path fill="none" stroke="#000000" d="M466.5281,-98.5506C451.077,-81.8509 431.2109,-60.3795 415.8754,-43.8048"/>
<polygon fill="#000000" stroke="#000000" points="418.1107,-41.067 408.7502,-36.1038 412.9726,-45.8209 418.1107,-41.067"/>
<text text-anchor="middle" x="448.5" y="-57.8" font-family="Times,serif" font-size="14.00" fill="#000000">yes</text>
</g>
<!-- unordered_multiset -->
<g id="node24" class="node type">
<title>unordered_multiset</title>
<polygon fill="#87cefa" stroke="#000000" points="598,-36 476,-36 476,0 598,0 598,-36"/>
<text text-anchor="middle" x="537" y="-14.3" font-family="Times,serif" font-size="14.00" fill="#000000">unordered_multiset</text>
</g>
<!-- skv21&#45;&gt;unordered_multiset -->
<g id="edge10" class="edge">
<title>skv21&#45;&gt;unordered_multiset</title>
<path fill="none" stroke="#000000" d="M504.5527,-93.4752C511.0556,-78.349 518.7779,-60.3862 525.0573,-45.7798"/>
<polygon fill="#000000" stroke="#000000" points="528.4072,-46.8493 529.1413,-36.28 521.9763,-44.0846 528.4072,-46.8493"/>
<text text-anchor="middle" x="528" y="-57.8" font-family="Times,serif" font-size="14.00" fill="#000000">no</text>
</g>
<!-- unordered_map -->
<g id="node25" class="node type">
<title>unordered_map</title>
<polygon fill="#87cefa" stroke="#000000" points="718,-36 616,-36 616,0 718,0 718,-36"/>
<text text-anchor="middle" x="667" y="-14.3" font-family="Times,serif" font-size="14.00" fill="#000000">unordered_map</text>
</g>
<!-- skv22&#45;&gt;unordered_map -->
<g id="edge11" class="edge">
<title>skv22&#45;&gt;unordered_map</title>
<path fill="none" stroke="#000000" d="M667,-86.9745C667,-73.5944 667,-58.8013 667,-46.3572"/>
<polygon fill="#000000" stroke="#000000" points="670.5001,-46.1208 667,-36.1208 663.5001,-46.1208 670.5001,-46.1208"/>
<text text-anchor="middle" x="676.5" y="-57.8" font-family="Times,serif" font-size="14.00" fill="#000000">yes</text>
</g>
<!-- unordered_set -->
<g id="node26" class="node type">
<title>unordered_set</title>
<polygon fill="#87cefa" stroke="#000000" points="829.5,-36 736.5,-36 736.5,0 829.5,0 829.5,-36"/>
<text text-anchor="middle" x="783" y="-14.3" font-family="Times,serif" font-size="14.00" fill="#000000">unordered_set</text>
</g>
<!-- skv22&#45;&gt;unordered_set -->
<g id="edge12" class="edge">
<title>skv22&#45;&gt;unordered_set</title>
<path fill="none" stroke="#000000" d="M694.1968,-99.9133C712.7127,-82.834 737.1287,-60.3123 755.6723,-43.2075"/>
<polygon fill="#000000" stroke="#000000" points="758.2482,-45.593 763.2257,-36.2401 753.5021,-40.4477 758.2482,-45.593"/>
<text text-anchor="middle" x="750" y="-57.8" font-family="Times,serif" font-size="14.00" fill="#000000">no</text>
</g>
</g>
</svg>
